999
DXF generated by OpenJsCad
  0
SECTION
  2
HEADER
  0
ENDSEC
  0
SECTION
  2
TABLES
  0
TABLE
  2
LTYPE
  70
1
  0
LTYPE
  2
CONTINUOUS
  3
Solid Line
  72
65
  73
0
  40
0.0
  0
ENDTAB
  0
TABLE
  2
LAYER
  70
1
  0
LAYER
  2
OpenJsCad
  62
7
  6
continuous
  0
ENDTAB
  0
TABLE
  2
STYLE
  70
0
  0
ENDTAB
  0
TABLE
  2
VIEW
  70
0
  0
ENDTAB
  0
ENDSEC
  0
SECTION
  2
BLOCKS
  0
ENDSEC
  0
SECTION
  2
ENTITIES
  0
LWPOLYLINE
  8
OpenJsCad
  90
33
  70
1
 10
10
 20
0
 30
0.0
 10
9.807852804032304
 20
1.9509032201612824
 30
0.0
 10
9.238795325112868
 20
3.826834323650898
 30
0.0
 10
8.314696123025453
 20
5.555702330196022
 30
0.0
 10
7.0710678118654755
 20
7.071067811865475
 30
0.0
 10
5.555702330196023
 20
8.314696123025453
 30
0.0
 10
3.8268343236508984
 20
9.238795325112868
 30
0.0
 10
1.9509032201612833
 20
9.807852804032304
 30
0.0
 10
6.123233995736766e-16
 20
10
 30
0.0
 10
-1.950903220161282
 20
9.807852804032304
 30
0.0
 10
-3.826834323650897
 20
9.238795325112868
 30
0.0
 10
-5.55570233019602
 20
8.314696123025453
 30
0.0
 10
-7.071067811865475
 20
7.0710678118654755
 30
0.0
 10
-8.314696123025453
 20
5.555702330196022
 30
0.0
 10
-9.238795325112868
 20
3.826834323650899
 30
0.0
 10
-9.807852804032304
 20
1.9509032201612861
 30
0.0
 10
-10
 20
1.2246467991473533e-15
 30
0.0
 10
-9.807852804032304
 20
-1.9509032201612837
 30
0.0
 10
-9.238795325112868
 20
-3.8268343236508966
 30
0.0
 10
-8.314696123025454
 20
-5.55570233019602
 30
0.0
 10
-7.071067811865477
 20
-7.071067811865475
 30
0.0
 10
-5.555702330196022
 20
-8.314696123025453
 30
0.0
 10
-3.8268343236509033
 20
-9.238795325112864
 30
0.0
 10
-1.9509032201612866
 20
-9.807852804032303
 30
0.0
 10
-1.8369701987210296e-15
 20
-10
 30
0.0
 10
1.950903220161283
 20
-9.807852804032304
 30
0.0
 10
3.8268343236509
 20
-9.238795325112866
 30
0.0
 10
5.555702330196018
 20
-8.314696123025454
 30
0.0
 10
7.071067811865474
 20
-7.071067811865477
 30
0.0
 10
8.314696123025453
 20
-5.555702330196022
 30
0.0
 10
9.238795325112864
 20
-3.826834323650904
 30
0.0
 10
9.807852804032303
 20
-1.9509032201612873
 30
0.0
 10
10
 20
0
 30
0.0
  0
ENDSEC
  0
EOF
