0
SECTION
2
ENTITIES
0
3DFACE
8
0
10
0.000000
20
-10.000000
30
0.000000
11
10.000000
21
-10.000000
31
0.000000
12
9.807853
22
-10.000000
32
1.950903
13
9.807853
23
-10.000000
33
1.950903
0
3DFACE
8
0
10
9.807853
20
-10.000000
30
1.950903
11
10.000000
21
-10.000000
31
0.000000
12
10.000000
22
10.000000
32
0.000000
13
10.000000
23
10.000000
33
0.000000
0
3DFACE
8
0
10
9.807853
20
-10.000000
30
1.950903
11
10.000000
21
10.000000
31
0.000000
12
9.807853
22
10.000000
32
1.950903
13
9.807853
23
10.000000
33
1.950903
0
3DFACE
8
0
10
0.000000
20
10.000000
30
0.000000
11
9.807853
21
10.000000
31
1.950903
12
10.000000
22
10.000000
32
0.000000
13
10.000000
23
10.000000
33
0.000000
0
3DFACE
8
0
10
0.000000
20
-10.000000
30
0.000000
11
9.807853
21
-10.000000
31
1.950903
12
9.238795
22
-10.000000
32
3.826834
13
9.238795
23
-10.000000
33
3.826834
0
3DFACE
8
0
10
9.238795
20
-10.000000
30
3.826834
11
9.807853
21
-10.000000
31
1.950903
12
9.807853
22
10.000000
32
1.950903
13
9.807853
23
10.000000
33
1.950903
0
3DFACE
8
0
10
9.238795
20
-10.000000
30
3.826834
11
9.807853
21
10.000000
31
1.950903
12
9.238795
22
10.000000
32
3.826834
13
9.238795
23
10.000000
33
3.826834
0
3DFACE
8
0
10
0.000000
20
10.000000
30
0.000000
11
9.238795
21
10.000000
31
3.826834
12
9.807853
22
10.000000
32
1.950903
13
9.807853
23
10.000000
33
1.950903
0
3DFACE
8
0
10
0.000000
20
-10.000000
30
0.000000
11
9.238795
21
-10.000000
31
3.826834
12
8.314696
22
-10.000000
32
5.555702
13
8.314696
23
-10.000000
33
5.555702
0
3DFACE
8
0
10
8.314696
20
-10.000000
30
5.555702
11
9.238795
21
-10.000000
31
3.826834
12
9.238795
22
10.000000
32
3.826834
13
9.238795
23
10.000000
33
3.826834
0
3DFACE
8
0
10
8.314696
20
-10.000000
30
5.555702
11
9.238795
21
10.000000
31
3.826834
12
8.314696
22
10.000000
32
5.555702
13
8.314696
23
10.000000
33
5.555702
0
3DFACE
8
0
10
0.000000
20
10.000000
30
0.000000
11
8.314696
21
10.000000
31
5.555702
12
9.238795
22
10.000000
32
3.826834
13
9.238795
23
10.000000
33
3.826834
0
3DFACE
8
0
10
0.000000
20
-10.000000
30
0.000000
11
8.314696
21
-10.000000
31
5.555702
12
7.071068
22
-10.000000
32
7.071068
13
7.071068
23
-10.000000
33
7.071068
0
3DFACE
8
0
10
7.071068
20
-10.000000
30
7.071068
11
8.314696
21
-10.000000
31
5.555702
12
8.314696
22
10.000000
32
5.555702
13
8.314696
23
10.000000
33
5.555702
0
3DFACE
8
0
10
7.071068
20
-10.000000
30
7.071068
11
8.314696
21
10.000000
31
5.555702
12
7.071068
22
10.000000
32
7.071068
13
7.071068
23
10.000000
33
7.071068
0
3DFACE
8
0
10
0.000000
20
10.000000
30
0.000000
11
7.071068
21
10.000000
31
7.071068
12
8.314696
22
10.000000
32
5.555702
13
8.314696
23
10.000000
33
5.555702
0
3DFACE
8
0
10
0.000000
20
-10.000000
30
0.000000
11
7.071068
21
-10.000000
31
7.071068
12
5.555702
22
-10.000000
32
8.314696
13
5.555702
23
-10.000000
33
8.314696
0
3DFACE
8
0
10
5.555702
20
-10.000000
30
8.314696
11
7.071068
21
-10.000000
31
7.071068
12
7.071068
22
10.000000
32
7.071068
13
7.071068
23
10.000000
33
7.071068
0
3DFACE
8
0
10
5.555702
20
-10.000000
30
8.314696
11
7.071068
21
10.000000
31
7.071068
12
5.555702
22
10.000000
32
8.314696
13
5.555702
23
10.000000
33
8.314696
0
3DFACE
8
0
10
0.000000
20
10.000000
30
0.000000
11
5.555702
21
10.000000
31
8.314696
12
7.071068
22
10.000000
32
7.071068
13
7.071068
23
10.000000
33
7.071068
0
3DFACE
8
0
10
0.000000
20
-10.000000
30
0.000000
11
5.555702
21
-10.000000
31
8.314696
12
3.826834
22
-10.000000
32
9.238795
13
3.826834
23
-10.000000
33
9.238795
0
3DFACE
8
0
10
3.826834
20
-10.000000
30
9.238795
11
5.555702
21
-10.000000
31
8.314696
12
5.555702
22
10.000000
32
8.314696
13
5.555702
23
10.000000
33
8.314696
0
3DFACE
8
0
10
3.826834
20
-10.000000
30
9.238795
11
5.555702
21
10.000000
31
8.314696
12
3.826834
22
10.000000
32
9.238795
13
3.826834
23
10.000000
33
9.238795
0
3DFACE
8
0
10
0.000000
20
10.000000
30
0.000000
11
3.826834
21
10.000000
31
9.238795
12
5.555702
22
10.000000
32
8.314696
13
5.555702
23
10.000000
33
8.314696
0
3DFACE
8
0
10
0.000000
20
-10.000000
30
0.000000
11
3.826834
21
-10.000000
31
9.238795
12
1.950903
22
-10.000000
32
9.807853
13
1.950903
23
-10.000000
33
9.807853
0
3DFACE
8
0
10
1.950903
20
-10.000000
30
9.807853
11
3.826834
21
-10.000000
31
9.238795
12
3.826834
22
10.000000
32
9.238795
13
3.826834
23
10.000000
33
9.238795
0
3DFACE
8
0
10
1.950903
20
-10.000000
30
9.807853
11
3.826834
21
10.000000
31
9.238795
12
1.950903
22
10.000000
32
9.807853
13
1.950903
23
10.000000
33
9.807853
0
3DFACE
8
0
10
0.000000
20
10.000000
30
0.000000
11
1.950903
21
10.000000
31
9.807853
12
3.826834
22
10.000000
32
9.238795
13
3.826834
23
10.000000
33
9.238795
0
3DFACE
8
0
10
0.000000
20
-10.000000
30
0.000000
11
1.950903
21
-10.000000
31
9.807853
12
0.000000
22
-10.000000
32
10.000000
13
0.000000
23
-10.000000
33
10.000000
0
3DFACE
8
0
10
0.000000
20
-10.000000
30
10.000000
11
1.950903
21
-10.000000
31
9.807853
12
1.950903
22
10.000000
32
9.807853
13
1.950903
23
10.000000
33
9.807853
0
3DFACE
8
0
10
0.000000
20
-10.000000
30
10.000000
11
1.950903
21
10.000000
31
9.807853
12
0.000000
22
10.000000
32
10.000000
13
0.000000
23
10.000000
33
10.000000
0
3DFACE
8
0
10
0.000000
20
10.000000
30
0.000000
11
0.000000
21
10.000000
31
10.000000
12
1.950903
22
10.000000
32
9.807853
13
1.950903
23
10.000000
33
9.807853
0
3DFACE
8
0
10
0.000000
20
-10.000000
30
0.000000
11
0.000000
21
-10.000000
31
10.000000
12
-1.950903
22
-10.000000
32
9.807853
13
-1.950903
23
-10.000000
33
9.807853
0
3DFACE
8
0
10
-1.950903
20
-10.000000
30
9.807853
11
0.000000
21
-10.000000
31
10.000000
12
0.000000
22
10.000000
32
10.000000
13
0.000000
23
10.000000
33
10.000000
0
3DFACE
8
0
10
-1.950903
20
-10.000000
30
9.807853
11
0.000000
21
10.000000
31
10.000000
12
-1.950903
22
10.000000
32
9.807853
13
-1.950903
23
10.000000
33
9.807853
0
3DFACE
8
0
10
0.000000
20
10.000000
30
0.000000
11
-1.950903
21
10.000000
31
9.807853
12
0.000000
22
10.000000
32
10.000000
13
0.000000
23
10.000000
33
10.000000
0
3DFACE
8
0
10
0.000000
20
-10.000000
30
0.000000
11
-1.950903
21
-10.000000
31
9.807853
12
-3.826834
22
-10.000000
32
9.238795
13
-3.826834
23
-10.000000
33
9.238795
0
3DFACE
8
0
10
-3.826834
20
-10.000000
30
9.238795
11
-1.950903
21
-10.000000
31
9.807853
12
-1.950903
22
10.000000
32
9.807853
13
-1.950903
23
10.000000
33
9.807853
0
3DFACE
8
0
10
-3.826834
20
-10.000000
30
9.238795
11
-1.950903
21
10.000000
31
9.807853
12
-3.826834
22
10.000000
32
9.238795
13
-3.826834
23
10.000000
33
9.238795
0
3DFACE
8
0
10
0.000000
20
10.000000
30
0.000000
11
-3.826834
21
10.000000
31
9.238795
12
-1.950903
22
10.000000
32
9.807853
13
-1.950903
23
10.000000
33
9.807853
0
3DFACE
8
0
10
0.000000
20
-10.000000
30
0.000000
11
-3.826834
21
-10.000000
31
9.238795
12
-5.555702
22
-10.000000
32
8.314696
13
-5.555702
23
-10.000000
33
8.314696
0
3DFACE
8
0
10
-5.555702
20
-10.000000
30
8.314696
11
-3.826834
21
-10.000000
31
9.238795
12
-3.826834
22
10.000000
32
9.238795
13
-3.826834
23
10.000000
33
9.238795
0
3DFACE
8
0
10
-5.555702
20
-10.000000
30
8.314696
11
-3.826834
21
10.000000
31
9.238795
12
-5.555702
22
10.000000
32
8.314696
13
-5.555702
23
10.000000
33
8.314696
0
3DFACE
8
0
10
0.000000
20
10.000000
30
0.000000
11
-5.555702
21
10.000000
31
8.314696
12
-3.826834
22
10.000000
32
9.238795
13
-3.826834
23
10.000000
33
9.238795
0
3DFACE
8
0
10
0.000000
20
-10.000000
30
0.000000
11
-5.555702
21
-10.000000
31
8.314696
12
-7.071068
22
-10.000000
32
7.071068
13
-7.071068
23
-10.000000
33
7.071068
0
3DFACE
8
0
10
-7.071068
20
-10.000000
30
7.071068
11
-5.555702
21
-10.000000
31
8.314696
12
-5.555702
22
10.000000
32
8.314696
13
-5.555702
23
10.000000
33
8.314696
0
3DFACE
8
0
10
-7.071068
20
-10.000000
30
7.071068
11
-5.555702
21
10.000000
31
8.314696
12
-7.071068
22
10.000000
32
7.071068
13
-7.071068
23
10.000000
33
7.071068
0
3DFACE
8
0
10
0.000000
20
10.000000
30
0.000000
11
-7.071068
21
10.000000
31
7.071068
12
-5.555702
22
10.000000
32
8.314696
13
-5.555702
23
10.000000
33
8.314696
0
3DFACE
8
0
10
0.000000
20
-10.000000
30
0.000000
11
-7.071068
21
-10.000000
31
7.071068
12
-8.314696
22
-10.000000
32
5.555702
13
-8.314696
23
-10.000000
33
5.555702
0
3DFACE
8
0
10
-8.314696
20
-10.000000
30
5.555702
11
-7.071068
21
-10.000000
31
7.071068
12
-7.071068
22
10.000000
32
7.071068
13
-7.071068
23
10.000000
33
7.071068
0
3DFACE
8
0
10
-8.314696
20
-10.000000
30
5.555702
11
-7.071068
21
10.000000
31
7.071068
12
-8.314696
22
10.000000
32
5.555702
13
-8.314696
23
10.000000
33
5.555702
0
3DFACE
8
0
10
0.000000
20
10.000000
30
0.000000
11
-8.314696
21
10.000000
31
5.555702
12
-7.071068
22
10.000000
32
7.071068
13
-7.071068
23
10.000000
33
7.071068
0
3DFACE
8
0
10
0.000000
20
-10.000000
30
0.000000
11
-8.314696
21
-10.000000
31
5.555702
12
-9.238795
22
-10.000000
32
3.826834
13
-9.238795
23
-10.000000
33
3.826834
0
3DFACE
8
0
10
-9.238795
20
-10.000000
30
3.826834
11
-8.314696
21
-10.000000
31
5.555702
12
-8.314696
22
10.000000
32
5.555702
13
-8.314696
23
10.000000
33
5.555702
0
3DFACE
8
0
10
-9.238795
20
-10.000000
30
3.826834
11
-8.314696
21
10.000000
31
5.555702
12
-9.238795
22
10.000000
32
3.826834
13
-9.238795
23
10.000000
33
3.826834
0
3DFACE
8
0
10
0.000000
20
10.000000
30
0.000000
11
-9.238795
21
10.000000
31
3.826834
12
-8.314696
22
10.000000
32
5.555702
13
-8.314696
23
10.000000
33
5.555702
0
3DFACE
8
0
10
0.000000
20
-10.000000
30
0.000000
11
-9.238795
21
-10.000000
31
3.826834
12
-9.807853
22
-10.000000
32
1.950903
13
-9.807853
23
-10.000000
33
1.950903
0
3DFACE
8
0
10
-9.807853
20
-10.000000
30
1.950903
11
-9.238795
21
-10.000000
31
3.826834
12
-9.238795
22
10.000000
32
3.826834
13
-9.238795
23
10.000000
33
3.826834
0
3DFACE
8
0
10
-9.807853
20
-10.000000
30
1.950903
11
-9.238795
21
10.000000
31
3.826834
12
-9.807853
22
10.000000
32
1.950903
13
-9.807853
23
10.000000
33
1.950903
0
3DFACE
8
0
10
0.000000
20
10.000000
30
0.000000
11
-9.807853
21
10.000000
31
1.950903
12
-9.238795
22
10.000000
32
3.826834
13
-9.238795
23
10.000000
33
3.826834
0
3DFACE
8
0
10
0.000000
20
-10.000000
30
0.000000
11
-9.807853
21
-10.000000
31
1.950903
12
-10.000000
22
-10.000000
32
0.000000
13
-10.000000
23
-10.000000
33
0.000000
0
3DFACE
8
0
10
-10.000000
20
-10.000000
30
0.000000
11
-9.807853
21
-10.000000
31
1.950903
12
-9.807853
22
10.000000
32
1.950903
13
-9.807853
23
10.000000
33
1.950903
0
3DFACE
8
0
10
-10.000000
20
-10.000000
30
0.000000
11
-9.807853
21
10.000000
31
1.950903
12
-10.000000
22
10.000000
32
0.000000
13
-10.000000
23
10.000000
33
0.000000
0
3DFACE
8
0
10
0.000000
20
10.000000
30
0.000000
11
-10.000000
21
10.000000
31
0.000000
12
-9.807853
22
10.000000
32
1.950903
13
-9.807853
23
10.000000
33
1.950903
0
3DFACE
8
0
10
0.000000
20
-10.000000
30
0.000000
11
-10.000000
21
-10.000000
31
0.000000
12
-9.807853
22
-10.000000
32
-1.950903
13
-9.807853
23
-10.000000
33
-1.950903
0
3DFACE
8
0
10
-9.807853
20
-10.000000
30
-1.950903
11
-10.000000
21
-10.000000
31
0.000000
12
-10.000000
22
10.000000
32
0.000000
13
-10.000000
23
10.000000
33
0.000000
0
3DFACE
8
0
10
-9.807853
20
-10.000000
30
-1.950903
11
-10.000000
21
10.000000
31
0.000000
12
-9.807853
22
10.000000
32
-1.950903
13
-9.807853
23
10.000000
33
-1.950903
0
3DFACE
8
0
10
0.000000
20
10.000000
30
0.000000
11
-9.807853
21
10.000000
31
-1.950903
12
-10.000000
22
10.000000
32
0.000000
13
-10.000000
23
10.000000
33
0.000000
0
3DFACE
8
0
10
0.000000
20
-10.000000
30
0.000000
11
-9.807853
21
-10.000000
31
-1.950903
12
-9.238795
22
-10.000000
32
-3.826834
13
-9.238795
23
-10.000000
33
-3.826834
0
3DFACE
8
0
10
-9.238795
20
-10.000000
30
-3.826834
11
-9.807853
21
-10.000000
31
-1.950903
12
-9.807853
22
10.000000
32
-1.950903
13
-9.807853
23
10.000000
33
-1.950903
0
3DFACE
8
0
10
-9.238795
20
-10.000000
30
-3.826834
11
-9.807853
21
10.000000
31
-1.950903
12
-9.238795
22
10.000000
32
-3.826834
13
-9.238795
23
10.000000
33
-3.826834
0
3DFACE
8
0
10
0.000000
20
10.000000
30
0.000000
11
-9.238795
21
10.000000
31
-3.826834
12
-9.807853
22
10.000000
32
-1.950903
13
-9.807853
23
10.000000
33
-1.950903
0
3DFACE
8
0
10
0.000000
20
-10.000000
30
0.000000
11
-9.238795
21
-10.000000
31
-3.826834
12
-8.314696
22
-10.000000
32
-5.555702
13
-8.314696
23
-10.000000
33
-5.555702
0
3DFACE
8
0
10
-8.314696
20
-10.000000
30
-5.555702
11
-9.238795
21
-10.000000
31
-3.826834
12
-9.238795
22
10.000000
32
-3.826834
13
-9.238795
23
10.000000
33
-3.826834
0
3DFACE
8
0
10
-8.314696
20
-10.000000
30
-5.555702
11
-9.238795
21
10.000000
31
-3.826834
12
-8.314696
22
10.000000
32
-5.555702
13
-8.314696
23
10.000000
33
-5.555702
0
3DFACE
8
0
10
0.000000
20
10.000000
30
0.000000
11
-8.314696
21
10.000000
31
-5.555702
12
-9.238795
22
10.000000
32
-3.826834
13
-9.238795
23
10.000000
33
-3.826834
0
3DFACE
8
0
10
0.000000
20
-10.000000
30
0.000000
11
-8.314696
21
-10.000000
31
-5.555702
12
-7.071068
22
-10.000000
32
-7.071068
13
-7.071068
23
-10.000000
33
-7.071068
0
3DFACE
8
0
10
-7.071068
20
-10.000000
30
-7.071068
11
-8.314696
21
-10.000000
31
-5.555702
12
-8.314696
22
10.000000
32
-5.555702
13
-8.314696
23
10.000000
33
-5.555702
0
3DFACE
8
0
10
-7.071068
20
-10.000000
30
-7.071068
11
-8.314696
21
10.000000
31
-5.555702
12
-7.071068
22
10.000000
32
-7.071068
13
-7.071068
23
10.000000
33
-7.071068
0
3DFACE
8
0
10
0.000000
20
10.000000
30
0.000000
11
-7.071068
21
10.000000
31
-7.071068
12
-8.314696
22
10.000000
32
-5.555702
13
-8.314696
23
10.000000
33
-5.555702
0
3DFACE
8
0
10
0.000000
20
-10.000000
30
0.000000
11
-7.071068
21
-10.000000
31
-7.071068
12
-5.555702
22
-10.000000
32
-8.314696
13
-5.555702
23
-10.000000
33
-8.314696
0
3DFACE
8
0
10
-5.555702
20
-10.000000
30
-8.314696
11
-7.071068
21
-10.000000
31
-7.071068
12
-7.071068
22
10.000000
32
-7.071068
13
-7.071068
23
10.000000
33
-7.071068
0
3DFACE
8
0
10
-5.555702
20
-10.000000
30
-8.314696
11
-7.071068
21
10.000000
31
-7.071068
12
-5.555702
22
10.000000
32
-8.314696
13
-5.555702
23
10.000000
33
-8.314696
0
3DFACE
8
0
10
0.000000
20
10.000000
30
0.000000
11
-5.555702
21
10.000000
31
-8.314696
12
-7.071068
22
10.000000
32
-7.071068
13
-7.071068
23
10.000000
33
-7.071068
0
3DFACE
8
0
10
0.000000
20
-10.000000
30
0.000000
11
-5.555702
21
-10.000000
31
-8.314696
12
-3.826834
22
-10.000000
32
-9.238795
13
-3.826834
23
-10.000000
33
-9.238795
0
3DFACE
8
0
10
-3.826834
20
-10.000000
30
-9.238795
11
-5.555702
21
-10.000000
31
-8.314696
12
-5.555702
22
10.000000
32
-8.314696
13
-5.555702
23
10.000000
33
-8.314696
0
3DFACE
8
0
10
-3.826834
20
-10.000000
30
-9.238795
11
-5.555702
21
10.000000
31
-8.314696
12
-3.826834
22
10.000000
32
-9.238795
13
-3.826834
23
10.000000
33
-9.238795
0
3DFACE
8
0
10
0.000000
20
10.000000
30
0.000000
11
-3.826834
21
10.000000
31
-9.238795
12
-5.555702
22
10.000000
32
-8.314696
13
-5.555702
23
10.000000
33
-8.314696
0
3DFACE
8
0
10
0.000000
20
-10.000000
30
0.000000
11
-3.826834
21
-10.000000
31
-9.238795
12
-1.950903
22
-10.000000
32
-9.807853
13
-1.950903
23
-10.000000
33
-9.807853
0
3DFACE
8
0
10
-1.950903
20
-10.000000
30
-9.807853
11
-3.826834
21
-10.000000
31
-9.238795
12
-3.826834
22
10.000000
32
-9.238795
13
-3.826834
23
10.000000
33
-9.238795
0
3DFACE
8
0
10
-1.950903
20
-10.000000
30
-9.807853
11
-3.826834
21
10.000000
31
-9.238795
12
-1.950903
22
10.000000
32
-9.807853
13
-1.950903
23
10.000000
33
-9.807853
0
3DFACE
8
0
10
0.000000
20
10.000000
30
0.000000
11
-1.950903
21
10.000000
31
-9.807853
12
-3.826834
22
10.000000
32
-9.238795
13
-3.826834
23
10.000000
33
-9.238795
0
3DFACE
8
0
10
0.000000
20
-10.000000
30
0.000000
11
-1.950903
21
-10.000000
31
-9.807853
12
-0.000000
22
-10.000000
32
-10.000000
13
-0.000000
23
-10.000000
33
-10.000000
0
3DFACE
8
0
10
-0.000000
20
-10.000000
30
-10.000000
11
-1.950903
21
-10.000000
31
-9.807853
12
-1.950903
22
10.000000
32
-9.807853
13
-1.950903
23
10.000000
33
-9.807853
0
3DFACE
8
0
10
-0.000000
20
-10.000000
30
-10.000000
11
-1.950903
21
10.000000
31
-9.807853
12
-0.000000
22
10.000000
32
-10.000000
13
-0.000000
23
10.000000
33
-10.000000
0
3DFACE
8
0
10
0.000000
20
10.000000
30
0.000000
11
-0.000000
21
10.000000
31
-10.000000
12
-1.950903
22
10.000000
32
-9.807853
13
-1.950903
23
10.000000
33
-9.807853
0
3DFACE
8
0
10
0.000000
20
-10.000000
30
0.000000
11
-0.000000
21
-10.000000
31
-10.000000
12
1.950903
22
-10.000000
32
-9.807853
13
1.950903
23
-10.000000
33
-9.807853
0
3DFACE
8
0
10
1.950903
20
-10.000000
30
-9.807853
11
-0.000000
21
-10.000000
31
-10.000000
12
-0.000000
22
10.000000
32
-10.000000
13
-0.000000
23
10.000000
33
-10.000000
0
3DFACE
8
0
10
1.950903
20
-10.000000
30
-9.807853
11
-0.000000
21
10.000000
31
-10.000000
12
1.950903
22
10.000000
32
-9.807853
13
1.950903
23
10.000000
33
-9.807853
0
3DFACE
8
0
10
0.000000
20
10.000000
30
0.000000
11
1.950903
21
10.000000
31
-9.807853
12
-0.000000
22
10.000000
32
-10.000000
13
-0.000000
23
10.000000
33
-10.000000
0
3DFACE
8
0
10
0.000000
20
-10.000000
30
0.000000
11
1.950903
21
-10.000000
31
-9.807853
12
3.826834
22
-10.000000
32
-9.238795
13
3.826834
23
-10.000000
33
-9.238795
0
3DFACE
8
0
10
3.826834
20
-10.000000
30
-9.238795
11
1.950903
21
-10.000000
31
-9.807853
12
1.950903
22
10.000000
32
-9.807853
13
1.950903
23
10.000000
33
-9.807853
0
3DFACE
8
0
10
3.826834
20
-10.000000
30
-9.238795
11
1.950903
21
10.000000
31
-9.807853
12
3.826834
22
10.000000
32
-9.238795
13
3.826834
23
10.000000
33
-9.238795
0
3DFACE
8
0
10
0.000000
20
10.000000
30
0.000000
11
3.826834
21
10.000000
31
-9.238795
12
1.950903
22
10.000000
32
-9.807853
13
1.950903
23
10.000000
33
-9.807853
0
3DFACE
8
0
10
0.000000
20
-10.000000
30
0.000000
11
3.826834
21
-10.000000
31
-9.238795
12
5.555702
22
-10.000000
32
-8.314696
13
5.555702
23
-10.000000
33
-8.314696
0
3DFACE
8
0
10
5.555702
20
-10.000000
30
-8.314696
11
3.826834
21
-10.000000
31
-9.238795
12
3.826834
22
10.000000
32
-9.238795
13
3.826834
23
10.000000
33
-9.238795
0
3DFACE
8
0
10
5.555702
20
-10.000000
30
-8.314696
11
3.826834
21
10.000000
31
-9.238795
12
5.555702
22
10.000000
32
-8.314696
13
5.555702
23
10.000000
33
-8.314696
0
3DFACE
8
0
10
0.000000
20
10.000000
30
0.000000
11
5.555702
21
10.000000
31
-8.314696
12
3.826834
22
10.000000
32
-9.238795
13
3.826834
23
10.000000
33
-9.238795
0
3DFACE
8
0
10
0.000000
20
-10.000000
30
0.000000
11
5.555702
21
-10.000000
31
-8.314696
12
7.071068
22
-10.000000
32
-7.071068
13
7.071068
23
-10.000000
33
-7.071068
0
3DFACE
8
0
10
7.071068
20
-10.000000
30
-7.071068
11
5.555702
21
-10.000000
31
-8.314696
12
5.555702
22
10.000000
32
-8.314696
13
5.555702
23
10.000000
33
-8.314696
0
3DFACE
8
0
10
7.071068
20
-10.000000
30
-7.071068
11
5.555702
21
10.000000
31
-8.314696
12
7.071068
22
10.000000
32
-7.071068
13
7.071068
23
10.000000
33
-7.071068
0
3DFACE
8
0
10
0.000000
20
10.000000
30
0.000000
11
7.071068
21
10.000000
31
-7.071068
12
5.555702
22
10.000000
32
-8.314696
13
5.555702
23
10.000000
33
-8.314696
0
3DFACE
8
0
10
0.000000
20
-10.000000
30
0.000000
11
7.071068
21
-10.000000
31
-7.071068
12
8.314696
22
-10.000000
32
-5.555702
13
8.314696
23
-10.000000
33
-5.555702
0
3DFACE
8
0
10
8.314696
20
-10.000000
30
-5.555702
11
7.071068
21
-10.000000
31
-7.071068
12
7.071068
22
10.000000
32
-7.071068
13
7.071068
23
10.000000
33
-7.071068
0
3DFACE
8
0
10
8.314696
20
-10.000000
30
-5.555702
11
7.071068
21
10.000000
31
-7.071068
12
8.314696
22
10.000000
32
-5.555702
13
8.314696
23
10.000000
33
-5.555702
0
3DFACE
8
0
10
0.000000
20
10.000000
30
0.000000
11
8.314696
21
10.000000
31
-5.555702
12
7.071068
22
10.000000
32
-7.071068
13
7.071068
23
10.000000
33
-7.071068
0
3DFACE
8
0
10
0.000000
20
-10.000000
30
0.000000
11
8.314696
21
-10.000000
31
-5.555702
12
9.238795
22
-10.000000
32
-3.826834
13
9.238795
23
-10.000000
33
-3.826834
0
3DFACE
8
0
10
9.238795
20
-10.000000
30
-3.826834
11
8.314696
21
-10.000000
31
-5.555702
12
8.314696
22
10.000000
32
-5.555702
13
8.314696
23
10.000000
33
-5.555702
0
3DFACE
8
0
10
9.238795
20
-10.000000
30
-3.826834
11
8.314696
21
10.000000
31
-5.555702
12
9.238795
22
10.000000
32
-3.826834
13
9.238795
23
10.000000
33
-3.826834
0
3DFACE
8
0
10
0.000000
20
10.000000
30
0.000000
11
9.238795
21
10.000000
31
-3.826834
12
8.314696
22
10.000000
32
-5.555702
13
8.314696
23
10.000000
33
-5.555702
0
3DFACE
8
0
10
0.000000
20
-10.000000
30
0.000000
11
9.238795
21
-10.000000
31
-3.826834
12
9.807853
22
-10.000000
32
-1.950903
13
9.807853
23
-10.000000
33
-1.950903
0
3DFACE
8
0
10
9.807853
20
-10.000000
30
-1.950903
11
9.238795
21
-10.000000
31
-3.826834
12
9.238795
22
10.000000
32
-3.826834
13
9.238795
23
10.000000
33
-3.826834
0
3DFACE
8
0
10
9.807853
20
-10.000000
30
-1.950903
11
9.238795
21
10.000000
31
-3.826834
12
9.807853
22
10.000000
32
-1.950903
13
9.807853
23
10.000000
33
-1.950903
0
3DFACE
8
0
10
0.000000
20
10.000000
30
0.000000
11
9.807853
21
10.000000
31
-1.950903
12
9.238795
22
10.000000
32
-3.826834
13
9.238795
23
10.000000
33
-3.826834
0
3DFACE
8
0
10
0.000000
20
-10.000000
30
0.000000
11
9.807853
21
-10.000000
31
-1.950903
12
10.000000
22
-10.000000
32
0.000000
13
10.000000
23
-10.000000
33
0.000000
0
3DFACE
8
0
10
10.000000
20
-10.000000
30
0.000000
11
9.807853
21
-10.000000
31
-1.950903
12
9.807853
22
10.000000
32
-1.950903
13
9.807853
23
10.000000
33
-1.950903
0
3DFACE
8
0
10
10.000000
20
-10.000000
30
0.000000
11
9.807853
21
10.000000
31
-1.950903
12
10.000000
22
10.000000
32
0.000000
13
10.000000
23
10.000000
33
0.000000
0
3DFACE
8
0
10
0.000000
20
10.000000
30
0.000000
11
10.000000
21
10.000000
31
0.000000
12
9.807853
22
10.000000
32
-1.950903
13
9.807853
23
10.000000
33
-1.950903
0
ENDSEC
0
EOF
