solid csg.js
facet normal 0 -1 0
outer loop
vertex 0 -10 0
vertex 10 -10 0
vertex 9.807852804032304 -10 1.9509032201612824
endloop
endfacet
facet normal 0.9951847266721968 0 0.0980171403295607
outer loop
vertex 9.807852804032304 -10 1.9509032201612824
vertex 10 -10 0
vertex 10 10 0
endloop
endfacet
facet normal 0.9951847266721968 0 0.0980171403295607
outer loop
vertex 9.807852804032304 -10 1.9509032201612824
vertex 10 10 0
vertex 9.807852804032304 10 1.9509032201612824
endloop
endfacet
facet normal 0 1 0
outer loop
vertex 0 10 0
vertex 9.807852804032304 10 1.9509032201612824
vertex 10 10 0
endloop
endfacet
facet normal 0 -1 0
outer loop
vertex 0 -10 0
vertex 9.807852804032304 -10 1.9509032201612824
vertex 9.238795325112868 -10 3.826834323650898
endloop
endfacet
facet normal 0.9569403357322089 0 0.29028467725446205
outer loop
vertex 9.238795325112868 -10 3.826834323650898
vertex 9.807852804032304 -10 1.9509032201612824
vertex 9.807852804032304 10 1.9509032201612824
endloop
endfacet
facet normal 0.9569403357322089 0 0.29028467725446205
outer loop
vertex 9.238795325112868 -10 3.826834323650898
vertex 9.807852804032304 10 1.9509032201612824
vertex 9.238795325112868 10 3.826834323650898
endloop
endfacet
facet normal 0 1 0
outer loop
vertex 0 10 0
vertex 9.238795325112868 10 3.826834323650898
vertex 9.807852804032304 10 1.9509032201612824
endloop
endfacet
facet normal 0 -1 0
outer loop
vertex 0 -10 0
vertex 9.238795325112868 -10 3.826834323650898
vertex 8.314696123025453 -10 5.555702330196022
endloop
endfacet
facet normal 0.881921264348355 0 0.47139673682599786
outer loop
vertex 8.314696123025453 -10 5.555702330196022
vertex 9.238795325112868 -10 3.826834323650898
vertex 9.238795325112868 10 3.826834323650898
endloop
endfacet
facet normal 0.881921264348355 0 0.47139673682599786
outer loop
vertex 8.314696123025453 -10 5.555702330196022
vertex 9.238795325112868 10 3.826834323650898
vertex 8.314696123025453 10 5.555702330196022
endloop
endfacet
facet normal 0 1 0
outer loop
vertex 0 10 0
vertex 8.314696123025453 10 5.555702330196022
vertex 9.238795325112868 10 3.826834323650898
endloop
endfacet
facet normal 0 -1 0
outer loop
vertex 0 -10 0
vertex 8.314696123025453 -10 5.555702330196022
vertex 7.0710678118654755 -10 7.071067811865475
endloop
endfacet
facet normal 0.7730104533627369 0 0.6343932841636455
outer loop
vertex 7.0710678118654755 -10 7.071067811865475
vertex 8.314696123025453 -10 5.555702330196022
vertex 8.314696123025453 10 5.555702330196022
endloop
endfacet
facet normal 0.7730104533627369 0 0.6343932841636455
outer loop
vertex 7.0710678118654755 -10 7.071067811865475
vertex 8.314696123025453 10 5.555702330196022
vertex 7.0710678118654755 10 7.071067811865475
endloop
endfacet
facet normal 0 1 0
outer loop
vertex 0 10 0
vertex 7.0710678118654755 10 7.071067811865475
vertex 8.314696123025453 10 5.555702330196022
endloop
endfacet
facet normal 0 -1 0
outer loop
vertex 0 -10 0
vertex 7.0710678118654755 -10 7.071067811865475
vertex 5.555702330196023 -10 8.314696123025453
endloop
endfacet
facet normal 0.6343932841636458 0 0.7730104533627368
outer loop
vertex 5.555702330196023 -10 8.314696123025453
vertex 7.0710678118654755 -10 7.071067811865475
vertex 7.0710678118654755 10 7.071067811865475
endloop
endfacet
facet normal 0.6343932841636458 0 0.7730104533627368
outer loop
vertex 5.555702330196023 -10 8.314696123025453
vertex 7.0710678118654755 10 7.071067811865475
vertex 5.555702330196023 10 8.314696123025453
endloop
endfacet
facet normal 0 1 0
outer loop
vertex 0 10 0
vertex 5.555702330196023 10 8.314696123025453
vertex 7.0710678118654755 10 7.071067811865475
endloop
endfacet
facet normal 0 -1 0
outer loop
vertex 0 -10 0
vertex 5.555702330196023 -10 8.314696123025453
vertex 3.8268343236508984 -10 9.238795325112868
endloop
endfacet
facet normal 0.4713967368259977 0 0.8819212643483549
outer loop
vertex 3.8268343236508984 -10 9.238795325112868
vertex 5.555702330196023 -10 8.314696123025453
vertex 5.555702330196023 10 8.314696123025453
endloop
endfacet
facet normal 0.4713967368259977 0 0.8819212643483549
outer loop
vertex 3.8268343236508984 -10 9.238795325112868
vertex 5.555702330196023 10 8.314696123025453
vertex 3.8268343236508984 10 9.238795325112868
endloop
endfacet
facet normal 0 1 0
outer loop
vertex 0 10 0
vertex 3.8268343236508984 10 9.238795325112868
vertex 5.555702330196023 10 8.314696123025453
endloop
endfacet
facet normal 0 -1 0
outer loop
vertex 0 -10 0
vertex 3.8268343236508984 -10 9.238795325112868
vertex 1.9509032201612833 -10 9.807852804032304
endloop
endfacet
facet normal 0.29028467725446216 0 0.9569403357322089
outer loop
vertex 1.9509032201612833 -10 9.807852804032304
vertex 3.8268343236508984 -10 9.238795325112868
vertex 3.8268343236508984 10 9.238795325112868
endloop
endfacet
facet normal 0.29028467725446216 0 0.9569403357322089
outer loop
vertex 1.9509032201612833 -10 9.807852804032304
vertex 3.8268343236508984 10 9.238795325112868
vertex 1.9509032201612833 10 9.807852804032304
endloop
endfacet
facet normal 0 1 0
outer loop
vertex 0 10 0
vertex 1.9509032201612833 10 9.807852804032304
vertex 3.8268343236508984 10 9.238795325112868
endloop
endfacet
facet normal 0 -1 0
outer loop
vertex 0 -10 0
vertex 1.9509032201612833 -10 9.807852804032304
vertex 6.123233995736766e-16 -10 10
endloop
endfacet
facet normal 0.0980171403295607 0 0.9951847266721968
outer loop
vertex 6.123233995736766e-16 -10 10
vertex 1.9509032201612833 -10 9.807852804032304
vertex 1.9509032201612833 10 9.807852804032304
endloop
endfacet
facet normal 0.0980171403295607 0 0.9951847266721968
outer loop
vertex 6.123233995736766e-16 -10 10
vertex 1.9509032201612833 10 9.807852804032304
vertex 6.123233995736766e-16 10 10
endloop
endfacet
facet normal 0 1 0
outer loop
vertex 0 10 0
vertex 6.123233995736766e-16 10 10
vertex 1.9509032201612833 10 9.807852804032304
endloop
endfacet
facet normal 0 -1 0
outer loop
vertex 0 -10 0
vertex 6.123233995736766e-16 -10 10
vertex -1.9509032201612797 -10 9.807852804032306
endloop
endfacet
facet normal -0.0980171403295599 0 0.9951847266721968
outer loop
vertex -1.9509032201612797 -10 9.807852804032306
vertex 6.123233995736766e-16 -10 10
vertex 6.123233995736766e-16 10 10
endloop
endfacet
facet normal -0.0980171403295599 0 0.9951847266721968
outer loop
vertex -1.9509032201612797 -10 9.807852804032306
vertex 6.123233995736766e-16 10 10
vertex -1.9509032201612797 10 9.807852804032306
endloop
endfacet
facet normal 0 1 0
outer loop
vertex 0 10 0
vertex -1.9509032201612797 10 9.807852804032306
vertex 6.123233995736766e-16 10 10
endloop
endfacet
facet normal 0 -1 0
outer loop
vertex 0 -10 0
vertex -1.9509032201612797 -10 9.807852804032306
vertex -3.826834323650897 -10 9.238795325112868
endloop
endfacet
facet normal -0.29028467725446266 0 0.9569403357322088
outer loop
vertex -3.826834323650897 -10 9.238795325112868
vertex -1.9509032201612797 -10 9.807852804032306
vertex -1.9509032201612797 10 9.807852804032306
endloop
endfacet
facet normal -0.29028467725446266 0 0.9569403357322088
outer loop
vertex -3.826834323650897 -10 9.238795325112868
vertex -1.9509032201612797 10 9.807852804032306
vertex -3.826834323650897 10 9.238795325112868
endloop
endfacet
facet normal 0 1 0
outer loop
vertex 0 10 0
vertex -3.826834323650897 10 9.238795325112868
vertex -1.9509032201612797 10 9.807852804032306
endloop
endfacet
facet normal 0 -1 0
outer loop
vertex 0 -10 0
vertex -3.826834323650897 -10 9.238795325112868
vertex -5.55570233019602 -10 8.314696123025453
endloop
endfacet
facet normal -0.471396736825998 0 0.8819212643483548
outer loop
vertex -5.55570233019602 -10 8.314696123025453
vertex -3.826834323650897 -10 9.238795325112868
vertex -3.826834323650897 10 9.238795325112868
endloop
endfacet
facet normal -0.471396736825998 0 0.8819212643483548
outer loop
vertex -5.55570233019602 -10 8.314696123025453
vertex -3.826834323650897 10 9.238795325112868
vertex -5.55570233019602 10 8.314696123025453
endloop
endfacet
facet normal 0 1 0
outer loop
vertex 0 10 0
vertex -5.55570233019602 10 8.314696123025453
vertex -3.826834323650897 10 9.238795325112868
endloop
endfacet
facet normal 0 -1 0
outer loop
vertex 0 -10 0
vertex -5.55570233019602 -10 8.314696123025453
vertex -7.071067811865475 -10 7.0710678118654755
endloop
endfacet
facet normal -0.6343932841636452 0 0.7730104533627374
outer loop
vertex -7.071067811865475 -10 7.0710678118654755
vertex -5.55570233019602 -10 8.314696123025453
vertex -5.55570233019602 10 8.314696123025453
endloop
endfacet
facet normal -0.6343932841636452 0 0.7730104533627374
outer loop
vertex -7.071067811865475 -10 7.0710678118654755
vertex -5.55570233019602 10 8.314696123025453
vertex -7.071067811865475 10 7.0710678118654755
endloop
endfacet
facet normal 0 1 0
outer loop
vertex 0 10 0
vertex -7.071067811865475 10 7.0710678118654755
vertex -5.55570233019602 10 8.314696123025453
endloop
endfacet
facet normal 0 -1 0
outer loop
vertex 0 -10 0
vertex -7.071067811865475 -10 7.0710678118654755
vertex -8.314696123025453 -10 5.555702330196022
endloop
endfacet
facet normal -0.773010453362737 0 0.6343932841636456
outer loop
vertex -8.314696123025453 -10 5.555702330196022
vertex -7.071067811865475 -10 7.0710678118654755
vertex -7.071067811865475 10 7.0710678118654755
endloop
endfacet
facet normal -0.773010453362737 0 0.6343932841636456
outer loop
vertex -8.314696123025453 -10 5.555702330196022
vertex -7.071067811865475 10 7.0710678118654755
vertex -8.314696123025453 10 5.555702330196022
endloop
endfacet
facet normal 0 1 0
outer loop
vertex 0 10 0
vertex -8.314696123025453 10 5.555702330196022
vertex -7.071067811865475 10 7.0710678118654755
endloop
endfacet
facet normal 0 -1 0
outer loop
vertex 0 -10 0
vertex -8.314696123025453 -10 5.555702330196022
vertex -9.238795325112868 -10 3.826834323650899
endloop
endfacet
facet normal -0.8819212643483548 0 0.471396736825998
outer loop
vertex -9.238795325112868 -10 3.826834323650899
vertex -8.314696123025453 -10 5.555702330196022
vertex -8.314696123025453 10 5.555702330196022
endloop
endfacet
facet normal -0.8819212643483548 0 0.471396736825998
outer loop
vertex -9.238795325112868 -10 3.826834323650899
vertex -8.314696123025453 10 5.555702330196022
vertex -9.238795325112868 10 3.826834323650899
endloop
endfacet
facet normal 0 1 0
outer loop
vertex 0 10 0
vertex -9.238795325112868 10 3.826834323650899
vertex -8.314696123025453 10 5.555702330196022
endloop
endfacet
facet normal 0 -1 0
outer loop
vertex 0 -10 0
vertex -9.238795325112868 -10 3.826834323650899
vertex -9.807852804032304 -10 1.9509032201612861
endloop
endfacet
facet normal -0.9569403357322088 0 0.2902846772544625
outer loop
vertex -9.807852804032304 -10 1.9509032201612861
vertex -9.238795325112868 -10 3.826834323650899
vertex -9.238795325112868 10 3.826834323650899
endloop
endfacet
facet normal -0.9569403357322088 0 0.2902846772544625
outer loop
vertex -9.807852804032304 -10 1.9509032201612861
vertex -9.238795325112868 10 3.826834323650899
vertex -9.807852804032304 10 1.9509032201612861
endloop
endfacet
facet normal 0 1 0
outer loop
vertex 0 10 0
vertex -9.807852804032304 10 1.9509032201612861
vertex -9.238795325112868 10 3.826834323650899
endloop
endfacet
facet normal 0 -1 0
outer loop
vertex 0 -10 0
vertex -9.807852804032304 -10 1.9509032201612861
vertex -10 -10 1.2246467991473533e-15
endloop
endfacet
facet normal -0.9951847266721969 0 0.09801714032956059
outer loop
vertex -10 -10 1.2246467991473533e-15
vertex -9.807852804032304 -10 1.9509032201612861
vertex -9.807852804032304 10 1.9509032201612861
endloop
endfacet
facet normal -0.9951847266721969 0 0.09801714032956059
outer loop
vertex -10 -10 1.2246467991473533e-15
vertex -9.807852804032304 10 1.9509032201612861
vertex -10 10 1.2246467991473533e-15
endloop
endfacet
facet normal 0 1 0
outer loop
vertex 0 10 0
vertex -10 10 1.2246467991473533e-15
vertex -9.807852804032304 10 1.9509032201612861
endloop
endfacet
facet normal 0 -1 0
outer loop
vertex 0 -10 0
vertex -10 -10 1.2246467991473533e-15
vertex -9.807852804032303 -10 -1.9509032201612881
endloop
endfacet
facet normal -0.9951847266721969 0 -0.09801714032956126
outer loop
vertex -9.807852804032303 -10 -1.9509032201612881
vertex -10 -10 1.2246467991473533e-15
vertex -10 10 1.2246467991473533e-15
endloop
endfacet
facet normal -0.9951847266721969 0 -0.09801714032956126
outer loop
vertex -9.807852804032303 -10 -1.9509032201612881
vertex -10 10 1.2246467991473533e-15
vertex -9.807852804032303 10 -1.9509032201612881
endloop
endfacet
facet normal 0 1 0
outer loop
vertex 0 10 0
vertex -9.807852804032303 10 -1.9509032201612881
vertex -10 10 1.2246467991473533e-15
endloop
endfacet
facet normal 0 -1 0
outer loop
vertex 0 -10 0
vertex -9.807852804032303 -10 -1.9509032201612881
vertex -9.23879532511287 -10 -3.826834323650892
endloop
endfacet
facet normal -0.956940335732209 0 -0.29028467725446205
outer loop
vertex -9.23879532511287 -10 -3.826834323650892
vertex -9.807852804032303 -10 -1.9509032201612881
vertex -9.807852804032303 10 -1.9509032201612881
endloop
endfacet
facet normal -0.956940335732209 0 -0.29028467725446205
outer loop
vertex -9.23879532511287 -10 -3.826834323650892
vertex -9.807852804032303 10 -1.9509032201612881
vertex -9.23879532511287 10 -3.826834323650892
endloop
endfacet
facet normal 0 1 0
outer loop
vertex 0 10 0
vertex -9.23879532511287 10 -3.826834323650892
vertex -9.807852804032303 10 -1.9509032201612881
endloop
endfacet
facet normal 0 -1 0
outer loop
vertex 0 -10 0
vertex -9.23879532511287 -10 -3.826834323650892
vertex -8.314696123025456 -10 -5.555702330196015
endloop
endfacet
facet normal -0.8819212643483552 0 -0.4713967368259974
outer loop
vertex -8.314696123025456 -10 -5.555702330196015
vertex -9.23879532511287 -10 -3.826834323650892
vertex -9.23879532511287 10 -3.826834323650892
endloop
endfacet
facet normal -0.8819212643483552 0 -0.4713967368259974
outer loop
vertex -8.314696123025456 -10 -5.555702330196015
vertex -9.23879532511287 10 -3.826834323650892
vertex -8.314696123025456 10 -5.555702330196015
endloop
endfacet
facet normal 0 1 0
outer loop
vertex 0 10 0
vertex -8.314696123025456 10 -5.555702330196015
vertex -9.23879532511287 10 -3.826834323650892
endloop
endfacet
facet normal 0 -1 0
outer loop
vertex 0 -10 0
vertex -8.314696123025456 -10 -5.555702330196015
vertex -7.071067811865477 -10 -7.071067811865475
endloop
endfacet
facet normal -0.773010453362738 0 -0.6343932841636444
outer loop
vertex -7.071067811865477 -10 -7.071067811865475
vertex -8.314696123025456 -10 -5.555702330196015
vertex -8.314696123025456 10 -5.555702330196015
endloop
endfacet
facet normal -0.773010453362738 0 -0.6343932841636444
outer loop
vertex -7.071067811865477 -10 -7.071067811865475
vertex -8.314696123025456 10 -5.555702330196015
vertex -7.071067811865477 10 -7.071067811865475
endloop
endfacet
facet normal 0 1 0
outer loop
vertex 0 10 0
vertex -7.071067811865477 10 -7.071067811865475
vertex -8.314696123025456 10 -5.555702330196015
endloop
endfacet
facet normal 0 -1 0
outer loop
vertex 0 -10 0
vertex -7.071067811865477 -10 -7.071067811865475
vertex -5.555702330196022 -10 -8.314696123025453
endloop
endfacet
facet normal -0.6343932841636452 0 -0.7730104533627373
outer loop
vertex -5.555702330196022 -10 -8.314696123025453
vertex -7.071067811865477 -10 -7.071067811865475
vertex -7.071067811865477 10 -7.071067811865475
endloop
endfacet
facet normal -0.6343932841636452 0 -0.7730104533627373
outer loop
vertex -5.555702330196022 -10 -8.314696123025453
vertex -7.071067811865477 10 -7.071067811865475
vertex -5.555702330196022 10 -8.314696123025453
endloop
endfacet
facet normal 0 1 0
outer loop
vertex 0 10 0
vertex -5.555702330196022 10 -8.314696123025453
vertex -7.071067811865477 10 -7.071067811865475
endloop
endfacet
facet normal 0 -1 0
outer loop
vertex 0 -10 0
vertex -5.555702330196022 -10 -8.314696123025453
vertex -3.8268343236509033 -10 -9.238795325112864
endloop
endfacet
facet normal -0.47139673682599753 0 -0.881921264348355
outer loop
vertex -3.8268343236509033 -10 -9.238795325112864
vertex -5.555702330196022 -10 -8.314696123025453
vertex -5.555702330196022 10 -8.314696123025453
endloop
endfacet
facet normal -0.47139673682599753 0 -0.881921264348355
outer loop
vertex -3.8268343236509033 -10 -9.238795325112864
vertex -5.555702330196022 10 -8.314696123025453
vertex -3.8268343236509033 10 -9.238795325112864
endloop
endfacet
facet normal 0 1 0
outer loop
vertex 0 10 0
vertex -3.8268343236509033 10 -9.238795325112864
vertex -5.555702330196022 10 -8.314696123025453
endloop
endfacet
facet normal 0 -1 0
outer loop
vertex 0 -10 0
vertex -3.8268343236509033 -10 -9.238795325112864
vertex -1.9509032201612866 -10 -9.807852804032303
endloop
endfacet
facet normal -0.2902846772544627 0 -0.9569403357322088
outer loop
vertex -1.9509032201612866 -10 -9.807852804032303
vertex -3.8268343236509033 -10 -9.238795325112864
vertex -3.8268343236509033 10 -9.238795325112864
endloop
endfacet
facet normal -0.2902846772544627 0 -0.9569403357322088
outer loop
vertex -1.9509032201612866 -10 -9.807852804032303
vertex -3.8268343236509033 10 -9.238795325112864
vertex -1.9509032201612866 10 -9.807852804032303
endloop
endfacet
facet normal 0 1 0
outer loop
vertex 0 10 0
vertex -1.9509032201612866 10 -9.807852804032303
vertex -3.8268343236509033 10 -9.238795325112864
endloop
endfacet
facet normal 0 -1 0
outer loop
vertex 0 -10 0
vertex -1.9509032201612866 -10 -9.807852804032303
vertex -1.8369701987210296e-15 -10 -10
endloop
endfacet
facet normal -0.09801714032956148 0 -0.9951847266721967
outer loop
vertex -1.8369701987210296e-15 -10 -10
vertex -1.9509032201612866 -10 -9.807852804032303
vertex -1.9509032201612866 10 -9.807852804032303
endloop
endfacet
facet normal -0.09801714032956148 0 -0.9951847266721967
outer loop
vertex -1.8369701987210296e-15 -10 -10
vertex -1.9509032201612866 10 -9.807852804032303
vertex -1.8369701987210296e-15 10 -10
endloop
endfacet
facet normal 0 1 0
outer loop
vertex 0 10 0
vertex -1.8369701987210296e-15 10 -10
vertex -1.9509032201612866 10 -9.807852804032303
endloop
endfacet
facet normal 0 -1 0
outer loop
vertex 0 -10 0
vertex -1.8369701987210296e-15 -10 -10
vertex 1.950903220161283 -10 -9.807852804032304
endloop
endfacet
facet normal 0.09801714032956059 0 -0.9951847266721969
outer loop
vertex 1.950903220161283 -10 -9.807852804032304
vertex -1.8369701987210296e-15 -10 -10
vertex -1.8369701987210296e-15 10 -10
endloop
endfacet
facet normal 0.09801714032956059 0 -0.9951847266721969
outer loop
vertex 1.950903220161283 -10 -9.807852804032304
vertex -1.8369701987210296e-15 10 -10
vertex 1.950903220161283 10 -9.807852804032304
endloop
endfacet
facet normal 0 1 0
outer loop
vertex 0 10 0
vertex 1.950903220161283 10 -9.807852804032304
vertex -1.8369701987210296e-15 10 -10
endloop
endfacet
facet normal 0 -1 0
outer loop
vertex 0 -10 0
vertex 1.950903220161283 -10 -9.807852804032304
vertex 3.8268343236509 -10 -9.238795325112866
endloop
endfacet
facet normal 0.29028467725446266 0 -0.9569403357322088
outer loop
vertex 3.8268343236509 -10 -9.238795325112866
vertex 1.950903220161283 -10 -9.807852804032304
vertex 1.950903220161283 10 -9.807852804032304
endloop
endfacet
facet normal 0.29028467725446266 0 -0.9569403357322088
outer loop
vertex 3.8268343236509 -10 -9.238795325112866
vertex 1.950903220161283 10 -9.807852804032304
vertex 3.8268343236509 10 -9.238795325112866
endloop
endfacet
facet normal 0 1 0
outer loop
vertex 0 10 0
vertex 3.8268343236509 10 -9.238795325112866
vertex 1.950903220161283 10 -9.807852804032304
endloop
endfacet
facet normal 0 -1 0
outer loop
vertex 0 -10 0
vertex 3.8268343236509 -10 -9.238795325112866
vertex 5.555702330196018 -10 -8.314696123025454
endloop
endfacet
facet normal 0.4713967368259976 0 -0.881921264348355
outer loop
vertex 5.555702330196018 -10 -8.314696123025454
vertex 3.8268343236509 -10 -9.238795325112866
vertex 3.8268343236509 10 -9.238795325112866
endloop
endfacet
facet normal 0.4713967368259976 0 -0.881921264348355
outer loop
vertex 5.555702330196018 -10 -8.314696123025454
vertex 3.8268343236509 10 -9.238795325112866
vertex 5.555702330196018 10 -8.314696123025454
endloop
endfacet
facet normal 0 1 0
outer loop
vertex 0 10 0
vertex 5.555702330196018 10 -8.314696123025454
vertex 3.8268343236509 10 -9.238795325112866
endloop
endfacet
facet normal 0 -1 0
outer loop
vertex 0 -10 0
vertex 5.555702330196018 -10 -8.314696123025454
vertex 7.071067811865474 -10 -7.071067811865477
endloop
endfacet
facet normal 0.6343932841636448 0 -0.7730104533627374
outer loop
vertex 7.071067811865474 -10 -7.071067811865477
vertex 5.555702330196018 -10 -8.314696123025454
vertex 5.555702330196018 10 -8.314696123025454
endloop
endfacet
facet normal 0.6343932841636448 0 -0.7730104533627374
outer loop
vertex 7.071067811865474 -10 -7.071067811865477
vertex 5.555702330196018 10 -8.314696123025454
vertex 7.071067811865474 10 -7.071067811865477
endloop
endfacet
facet normal 0 1 0
outer loop
vertex 0 10 0
vertex 7.071067811865474 10 -7.071067811865477
vertex 5.555702330196018 10 -8.314696123025454
endloop
endfacet
facet normal 0 -1 0
outer loop
vertex 0 -10 0
vertex 7.071067811865474 -10 -7.071067811865477
vertex 8.314696123025453 -10 -5.555702330196022
endloop
endfacet
facet normal 0.773010453362737 0 -0.6343932841636454
outer loop
vertex 8.314696123025453 -10 -5.555702330196022
vertex 7.071067811865474 -10 -7.071067811865477
vertex 7.071067811865474 10 -7.071067811865477
endloop
endfacet
facet normal 0.773010453362737 0 -0.6343932841636454
outer loop
vertex 8.314696123025453 -10 -5.555702330196022
vertex 7.071067811865474 10 -7.071067811865477
vertex 8.314696123025453 10 -5.555702330196022
endloop
endfacet
facet normal 0 1 0
outer loop
vertex 0 10 0
vertex 8.314696123025453 10 -5.555702330196022
vertex 7.071067811865474 10 -7.071067811865477
endloop
endfacet
facet normal 0 -1 0
outer loop
vertex 0 -10 0
vertex 8.314696123025453 -10 -5.555702330196022
vertex 9.238795325112864 -10 -3.826834323650904
endloop
endfacet
facet normal 0.8819212643483549 0 -0.47139673682599775
outer loop
vertex 9.238795325112864 -10 -3.826834323650904
vertex 8.314696123025453 -10 -5.555702330196022
vertex 8.314696123025453 10 -5.555702330196022
endloop
endfacet
facet normal 0.8819212643483549 0 -0.47139673682599775
outer loop
vertex 9.238795325112864 -10 -3.826834323650904
vertex 8.314696123025453 10 -5.555702330196022
vertex 9.238795325112864 10 -3.826834323650904
endloop
endfacet
facet normal 0 1 0
outer loop
vertex 0 10 0
vertex 9.238795325112864 10 -3.826834323650904
vertex 8.314696123025453 10 -5.555702330196022
endloop
endfacet
facet normal 0 -1 0
outer loop
vertex 0 -10 0
vertex 9.238795325112864 -10 -3.826834323650904
vertex 9.807852804032303 -10 -1.9509032201612873
endloop
endfacet
facet normal 0.9569403357322088 0 -0.2902846772544627
outer loop
vertex 9.807852804032303 -10 -1.9509032201612873
vertex 9.238795325112864 -10 -3.826834323650904
vertex 9.238795325112864 10 -3.826834323650904
endloop
endfacet
facet normal 0.9569403357322088 0 -0.2902846772544627
outer loop
vertex 9.807852804032303 -10 -1.9509032201612873
vertex 9.238795325112864 10 -3.826834323650904
vertex 9.807852804032303 10 -1.9509032201612873
endloop
endfacet
facet normal 0 1 0
outer loop
vertex 0 10 0
vertex 9.807852804032303 10 -1.9509032201612873
vertex 9.238795325112864 10 -3.826834323650904
endloop
endfacet
facet normal 0 -1 0
outer loop
vertex 0 -10 0
vertex 9.807852804032303 -10 -1.9509032201612873
vertex 10 -10 0
endloop
endfacet
facet normal 0.9951847266721967 0 -0.09801714032956148
outer loop
vertex 10 -10 0
vertex 9.807852804032303 -10 -1.9509032201612873
vertex 9.807852804032303 10 -1.9509032201612873
endloop
endfacet
facet normal 0.9951847266721967 0 -0.09801714032956148
outer loop
vertex 10 -10 0
vertex 9.807852804032303 10 -1.9509032201612873
vertex 10 10 0
endloop
endfacet
facet normal 0 1 0
outer loop
vertex 0 10 0
vertex 10 10 0
vertex 9.807852804032303 10 -1.9509032201612873
endloop
endfacet
endsolid csg.js
