solid csg.js
facet normal 0 0 -1
outer loop
vertex 0 25.4000508001016 0
vertex 25.4000508001016 0 0
vertex 0 0 0
endloop
endfacet
facet normal 0 -0.8944271909999159 0.4472135954999579
outer loop
vertex 0 0 0
vertex 25.4000508001016 0 0
vertex 12.7000254000508 12.7000254000508 25.4000508001016
endloop
endfacet
facet normal 0.7071067811865476 0.7071067811865476 0
outer loop
vertex 12.7000254000508 12.7000254000508 25.4000508001016
vertex 25.4000508001016 0 0
vertex 0 25.4000508001016 0
endloop
endfacet
facet normal -0.8944271909999159 0 0.4472135954999579
outer loop
vertex 0 0 0
vertex 12.7000254000508 12.7000254000508 25.4000508001016
vertex 0 25.4000508001016 0
endloop
endfacet
facet normal 0 0 -1
outer loop
vertex 0 25.4000508001016 0
vertex 25.4000508001016 25.4000508001016 0
vertex 25.4000508001016 0 0
endloop
endfacet
facet normal 0.8944271909999159 0 0.4472135954999579
outer loop
vertex 25.4000508001016 0 0
vertex 25.4000508001016 25.4000508001016 0
vertex 12.7000254000508 12.7000254000508 25.4000508001016
endloop
endfacet
facet normal 0 0.8944271909999159 0.4472135954999579
outer loop
vertex 12.7000254000508 12.7000254000508 25.4000508001016
vertex 25.4000508001016 25.4000508001016 0
vertex 0 25.4000508001016 0
endloop
endfacet
facet normal -0.7071067811865476 -0.7071067811865476 0
outer loop
vertex 12.7000254000508 12.7000254000508 25.4000508001016
vertex 0 25.4000508001016 0
vertex 25.4000508001016 0 0
endloop
endfacet
endsolid csg.js
