solid csg.js
facet normal 0.9351131265310294 -0.2505628070857315 -0.25056280708573153
outer loop
vertex 10 0 0
vertex 8.660254037844387 -4.999999999999999 0
vertex 7.500000000000001 -4.330127018922193 -4.999999999999999
endloop
endfacet
facet normal 0.9351131265310294 -0.2505628070857315 -0.25056280708573153
outer loop
vertex 10 0 0
vertex 7.500000000000001 -4.330127018922193 -4.999999999999999
vertex 8.660254037844387 0 -4.999999999999999
endloop
endfacet
facet normal 0.9351131265310294 -0.25056280708573164 0.25056280708573164
outer loop
vertex 8.660254037844387 0 4.999999999999999
vertex 7.500000000000001 -4.330127018922193 4.999999999999999
vertex 8.660254037844387 -4.999999999999999 0
endloop
endfacet
facet normal 0.9351131265310294 -0.25056280708573164 0.25056280708573164
outer loop
vertex 8.660254037844387 0 4.999999999999999
vertex 8.660254037844387 -4.999999999999999 0
vertex 10 0 0
endloop
endfacet
facet normal 0.6947465906068658 -0.1861567878973855 -0.6947465906068657
outer loop
vertex 8.660254037844387 0 -4.999999999999999
vertex 7.500000000000001 -4.330127018922193 -4.999999999999999
vertex 4.3301270189221945 -2.5 -8.660254037844386
endloop
endfacet
facet normal 0.6947465906068658 -0.1861567878973855 -0.6947465906068657
outer loop
vertex 8.660254037844387 0 -4.999999999999999
vertex 4.3301270189221945 -2.5 -8.660254037844386
vertex 5.000000000000001 0 -8.660254037844386
endloop
endfacet
facet normal 0.6947465906068658 -0.18615678789738538 0.6947465906068657
outer loop
vertex 5.000000000000001 0 8.660254037844386
vertex 4.3301270189221945 -2.5 8.660254037844386
vertex 7.500000000000001 -4.330127018922193 4.999999999999999
endloop
endfacet
facet normal 0.6947465906068658 -0.18615678789738538 0.6947465906068657
outer loop
vertex 5.000000000000001 0 8.660254037844386
vertex 7.500000000000001 -4.330127018922193 4.999999999999999
vertex 8.660254037844387 0 4.999999999999999
endloop
endfacet
facet normal 0.2581988897471613 -0.06918418399436432 -0.9636113749942802
outer loop
vertex 5.000000000000001 0 -8.660254037844386
vertex 4.3301270189221945 -2.5 -8.660254037844386
vertex 6.123233995736766e-16 0 -10
endloop
endfacet
facet normal 0.2581988897471613 -0.06918418399436428 0.9636113749942802
outer loop
vertex 6.123233995736766e-16 0 10
vertex 4.3301270189221945 -2.5 8.660254037844386
vertex 5.000000000000001 0 8.660254037844386
endloop
endfacet
facet normal 0.6845503194452978 -0.6845503194452978 -0.2505628070857315
outer loop
vertex 8.660254037844387 -4.999999999999999 0
vertex 5.000000000000001 -8.660254037844386 0
vertex 4.3301270189221945 -7.5 -4.999999999999999
endloop
endfacet
facet normal 0.6845503194452978 -0.6845503194452978 -0.2505628070857315
outer loop
vertex 8.660254037844387 -4.999999999999999 0
vertex 4.3301270189221945 -7.5 -4.999999999999999
vertex 7.500000000000001 -4.330127018922193 -4.999999999999999
endloop
endfacet
facet normal 0.6845503194452979 -0.6845503194452978 0.2505628070857315
outer loop
vertex 7.500000000000001 -4.330127018922193 4.999999999999999
vertex 4.3301270189221945 -7.5 4.999999999999999
vertex 5.000000000000001 -8.660254037844386 0
endloop
endfacet
facet normal 0.6845503194452979 -0.6845503194452978 0.2505628070857315
outer loop
vertex 7.500000000000001 -4.330127018922193 4.999999999999999
vertex 5.000000000000001 -8.660254037844386 0
vertex 8.660254037844387 -4.999999999999999 0
endloop
endfacet
facet normal 0.5085898027094804 -0.5085898027094802 -0.6947465906068658
outer loop
vertex 7.500000000000001 -4.330127018922193 -4.999999999999999
vertex 4.3301270189221945 -7.5 -4.999999999999999
vertex 2.500000000000001 -4.330127018922194 -8.660254037844386
endloop
endfacet
facet normal 0.5085898027094804 -0.5085898027094802 -0.6947465906068658
outer loop
vertex 7.500000000000001 -4.330127018922193 -4.999999999999999
vertex 2.500000000000001 -4.330127018922194 -8.660254037844386
vertex 4.3301270189221945 -2.5 -8.660254037844386
endloop
endfacet
facet normal 0.5085898027094802 -0.5085898027094802 0.6947465906068658
outer loop
vertex 4.3301270189221945 -2.5 8.660254037844386
vertex 2.500000000000001 -4.330127018922194 8.660254037844386
vertex 4.3301270189221945 -7.5 4.999999999999999
endloop
endfacet
facet normal 0.5085898027094802 -0.5085898027094802 0.6947465906068658
outer loop
vertex 4.3301270189221945 -2.5 8.660254037844386
vertex 4.3301270189221945 -7.5 4.999999999999999
vertex 7.500000000000001 -4.330127018922193 4.999999999999999
endloop
endfacet
facet normal 0.1890147057527969 -0.1890147057527969 -0.9636113749942801
outer loop
vertex 4.3301270189221945 -2.5 -8.660254037844386
vertex 2.500000000000001 -4.330127018922194 -8.660254037844386
vertex 6.123233995736766e-16 0 -10
endloop
endfacet
facet normal 0.18901470575279697 -0.1890147057527969 0.9636113749942801
outer loop
vertex 6.123233995736766e-16 0 10
vertex 2.500000000000001 -4.330127018922194 8.660254037844386
vertex 4.3301270189221945 -2.5 8.660254037844386
endloop
endfacet
facet normal 0.25056280708573175 -0.9351131265310294 -0.2505628070857315
outer loop
vertex 5.000000000000001 -8.660254037844386 0
vertex 6.123233995736766e-16 -10 0
vertex 5.302876193624535e-16 -8.660254037844387 -4.999999999999999
endloop
endfacet
facet normal 0.25056280708573175 -0.9351131265310294 -0.2505628070857315
outer loop
vertex 5.000000000000001 -8.660254037844386 0
vertex 5.302876193624535e-16 -8.660254037844387 -4.999999999999999
vertex 4.3301270189221945 -7.5 -4.999999999999999
endloop
endfacet
facet normal 0.2505628070857317 -0.9351131265310293 0.2505628070857314
outer loop
vertex 4.3301270189221945 -7.5 4.999999999999999
vertex 5.302876193624535e-16 -8.660254037844387 4.999999999999999
vertex 6.123233995736766e-16 -10 0
endloop
endfacet
facet normal 0.2505628070857317 -0.9351131265310293 0.2505628070857314
outer loop
vertex 4.3301270189221945 -7.5 4.999999999999999
vertex 6.123233995736766e-16 -10 0
vertex 5.000000000000001 -8.660254037844386 0
endloop
endfacet
facet normal 0.1861567878973856 -0.6947465906068656 -0.6947465906068658
outer loop
vertex 4.3301270189221945 -7.5 -4.999999999999999
vertex 5.302876193624535e-16 -8.660254037844387 -4.999999999999999
vertex 3.0616169978683836e-16 -5.000000000000001 -8.660254037844386
endloop
endfacet
facet normal 0.1861567878973856 -0.6947465906068656 -0.6947465906068658
outer loop
vertex 4.3301270189221945 -7.5 -4.999999999999999
vertex 3.0616169978683836e-16 -5.000000000000001 -8.660254037844386
vertex 2.500000000000001 -4.330127018922194 -8.660254037844386
endloop
endfacet
facet normal 0.1861567878973856 -0.6947465906068657 0.6947465906068657
outer loop
vertex 2.500000000000001 -4.330127018922194 8.660254037844386
vertex 3.0616169978683836e-16 -5.000000000000001 8.660254037844386
vertex 5.302876193624535e-16 -8.660254037844387 4.999999999999999
endloop
endfacet
facet normal 0.1861567878973856 -0.6947465906068657 0.6947465906068657
outer loop
vertex 2.500000000000001 -4.330127018922194 8.660254037844386
vertex 5.302876193624535e-16 -8.660254037844387 4.999999999999999
vertex 4.3301270189221945 -7.5 4.999999999999999
endloop
endfacet
facet normal 0.06918418399436439 -0.25819888974716126 -0.9636113749942802
outer loop
vertex 2.500000000000001 -4.330127018922194 -8.660254037844386
vertex 3.0616169978683836e-16 -5.000000000000001 -8.660254037844386
vertex 6.123233995736766e-16 0 -10
endloop
endfacet
facet normal 0.06918418399436442 -0.2581988897471613 0.9636113749942802
outer loop
vertex 6.123233995736766e-16 0 10
vertex 3.0616169978683836e-16 -5.000000000000001 8.660254037844386
vertex 2.500000000000001 -4.330127018922194 8.660254037844386
endloop
endfacet
facet normal -0.2505628070857315 -0.9351131265310294 -0.25056280708573153
outer loop
vertex 6.123233995736766e-16 -10 0
vertex -4.999999999999998 -8.660254037844387 0
vertex -4.330127018922192 -7.500000000000001 -4.999999999999999
endloop
endfacet
facet normal -0.2505628070857315 -0.9351131265310294 -0.25056280708573153
outer loop
vertex 6.123233995736766e-16 -10 0
vertex -4.330127018922192 -7.500000000000001 -4.999999999999999
vertex 5.302876193624535e-16 -8.660254037844387 -4.999999999999999
endloop
endfacet
facet normal -0.25056280708573164 -0.9351131265310294 0.25056280708573164
outer loop
vertex 5.302876193624535e-16 -8.660254037844387 4.999999999999999
vertex -4.330127018922192 -7.500000000000001 4.999999999999999
vertex -4.999999999999998 -8.660254037844387 0
endloop
endfacet
facet normal -0.25056280708573164 -0.9351131265310294 0.25056280708573164
outer loop
vertex 5.302876193624535e-16 -8.660254037844387 4.999999999999999
vertex -4.999999999999998 -8.660254037844387 0
vertex 6.123233995736766e-16 -10 0
endloop
endfacet
facet normal -0.1861567878973855 -0.6947465906068658 -0.6947465906068657
outer loop
vertex 5.302876193624535e-16 -8.660254037844387 -4.999999999999999
vertex -4.330127018922192 -7.500000000000001 -4.999999999999999
vertex -2.4999999999999996 -4.3301270189221945 -8.660254037844386
endloop
endfacet
facet normal -0.1861567878973855 -0.6947465906068658 -0.6947465906068657
outer loop
vertex 5.302876193624535e-16 -8.660254037844387 -4.999999999999999
vertex -2.4999999999999996 -4.3301270189221945 -8.660254037844386
vertex 3.0616169978683836e-16 -5.000000000000001 -8.660254037844386
endloop
endfacet
facet normal -0.18615678789738538 -0.6947465906068658 0.6947465906068657
outer loop
vertex 3.0616169978683836e-16 -5.000000000000001 8.660254037844386
vertex -2.4999999999999996 -4.3301270189221945 8.660254037844386
vertex -4.330127018922192 -7.500000000000001 4.999999999999999
endloop
endfacet
facet normal -0.18615678789738538 -0.6947465906068658 0.6947465906068657
outer loop
vertex 3.0616169978683836e-16 -5.000000000000001 8.660254037844386
vertex -4.330127018922192 -7.500000000000001 4.999999999999999
vertex 5.302876193624535e-16 -8.660254037844387 4.999999999999999
endloop
endfacet
facet normal -0.06918418399436432 -0.2581988897471613 -0.9636113749942802
outer loop
vertex 3.0616169978683836e-16 -5.000000000000001 -8.660254037844386
vertex -2.4999999999999996 -4.3301270189221945 -8.660254037844386
vertex 6.123233995736766e-16 0 -10
endloop
endfacet
facet normal -0.06918418399436428 -0.2581988897471613 0.9636113749942802
outer loop
vertex 6.123233995736766e-16 0 10
vertex -2.4999999999999996 -4.3301270189221945 8.660254037844386
vertex 3.0616169978683836e-16 -5.000000000000001 8.660254037844386
endloop
endfacet
facet normal -0.6845503194452977 -0.6845503194452979 -0.2505628070857316
outer loop
vertex -4.999999999999998 -8.660254037844387 0
vertex -8.660254037844387 -4.999999999999999 0
vertex -7.500000000000001 -4.330127018922193 -4.999999999999999
endloop
endfacet
facet normal -0.6845503194452977 -0.6845503194452979 -0.2505628070857316
outer loop
vertex -4.999999999999998 -8.660254037844387 0
vertex -7.500000000000001 -4.330127018922193 -4.999999999999999
vertex -4.330127018922192 -7.500000000000001 -4.999999999999999
endloop
endfacet
facet normal -0.6845503194452978 -0.6845503194452979 0.2505628070857316
outer loop
vertex -4.330127018922192 -7.500000000000001 4.999999999999999
vertex -7.500000000000001 -4.330127018922193 4.999999999999999
vertex -8.660254037844387 -4.999999999999999 0
endloop
endfacet
facet normal -0.6845503194452978 -0.6845503194452979 0.2505628070857316
outer loop
vertex -4.330127018922192 -7.500000000000001 4.999999999999999
vertex -8.660254037844387 -4.999999999999999 0
vertex -4.999999999999998 -8.660254037844387 0
endloop
endfacet
facet normal -0.5085898027094802 -0.5085898027094804 -0.6947465906068657
outer loop
vertex -4.330127018922192 -7.500000000000001 -4.999999999999999
vertex -7.500000000000001 -4.330127018922193 -4.999999999999999
vertex -4.3301270189221945 -2.5 -8.660254037844386
endloop
endfacet
facet normal -0.5085898027094802 -0.5085898027094804 -0.6947465906068657
outer loop
vertex -4.330127018922192 -7.500000000000001 -4.999999999999999
vertex -4.3301270189221945 -2.5 -8.660254037844386
vertex -2.4999999999999996 -4.3301270189221945 -8.660254037844386
endloop
endfacet
facet normal -0.5085898027094802 -0.5085898027094803 0.6947465906068657
outer loop
vertex -2.4999999999999996 -4.3301270189221945 8.660254037844386
vertex -4.3301270189221945 -2.5 8.660254037844386
vertex -7.500000000000001 -4.330127018922193 4.999999999999999
endloop
endfacet
facet normal -0.5085898027094802 -0.5085898027094803 0.6947465906068657
outer loop
vertex -2.4999999999999996 -4.3301270189221945 8.660254037844386
vertex -7.500000000000001 -4.330127018922193 4.999999999999999
vertex -4.330127018922192 -7.500000000000001 4.999999999999999
endloop
endfacet
facet normal -0.18901470575279694 -0.18901470575279697 -0.9636113749942802
outer loop
vertex -2.4999999999999996 -4.3301270189221945 -8.660254037844386
vertex -4.3301270189221945 -2.5 -8.660254037844386
vertex 6.123233995736766e-16 0 -10
endloop
endfacet
facet normal -0.18901470575279689 -0.18901470575279702 0.9636113749942802
outer loop
vertex 6.123233995736766e-16 0 10
vertex -4.3301270189221945 -2.5 8.660254037844386
vertex -2.4999999999999996 -4.3301270189221945 8.660254037844386
endloop
endfacet
facet normal -0.9351131265310294 -0.25056280708573153 -0.2505628070857315
outer loop
vertex -8.660254037844387 -4.999999999999999 0
vertex -10 -1.2246467991473533e-15 0
vertex -8.660254037844387 -1.060575238724907e-15 -4.999999999999999
endloop
endfacet
facet normal -0.9351131265310294 -0.25056280708573153 -0.2505628070857315
outer loop
vertex -8.660254037844387 -4.999999999999999 0
vertex -8.660254037844387 -1.060575238724907e-15 -4.999999999999999
vertex -7.500000000000001 -4.330127018922193 -4.999999999999999
endloop
endfacet
facet normal -0.9351131265310294 -0.2505628070857317 0.2505628070857315
outer loop
vertex -7.500000000000001 -4.330127018922193 4.999999999999999
vertex -8.660254037844387 -1.060575238724907e-15 4.999999999999999
vertex -10 -1.2246467991473533e-15 0
endloop
endfacet
facet normal -0.9351131265310294 -0.2505628070857317 0.2505628070857315
outer loop
vertex -7.500000000000001 -4.330127018922193 4.999999999999999
vertex -10 -1.2246467991473533e-15 0
vertex -8.660254037844387 -4.999999999999999 0
endloop
endfacet
facet normal -0.6947465906068657 -0.18615678789738552 -0.6947465906068657
outer loop
vertex -7.500000000000001 -4.330127018922193 -4.999999999999999
vertex -8.660254037844387 -1.060575238724907e-15 -4.999999999999999
vertex -5.000000000000001 -6.123233995736767e-16 -8.660254037844386
endloop
endfacet
facet normal -0.6947465906068657 -0.18615678789738552 -0.6947465906068657
outer loop
vertex -7.500000000000001 -4.330127018922193 -4.999999999999999
vertex -5.000000000000001 -6.123233995736767e-16 -8.660254037844386
vertex -4.3301270189221945 -2.5 -8.660254037844386
endloop
endfacet
facet normal -0.6947465906068657 -0.1861567878973854 0.6947465906068657
outer loop
vertex -4.3301270189221945 -2.5 8.660254037844386
vertex -5.000000000000001 -6.123233995736767e-16 8.660254037844386
vertex -8.660254037844387 -1.060575238724907e-15 4.999999999999999
endloop
endfacet
facet normal -0.6947465906068657 -0.1861567878973854 0.6947465906068657
outer loop
vertex -4.3301270189221945 -2.5 8.660254037844386
vertex -8.660254037844387 -1.060575238724907e-15 4.999999999999999
vertex -7.500000000000001 -4.330127018922193 4.999999999999999
endloop
endfacet
facet normal -0.2581988897471613 -0.06918418399436434 -0.9636113749942802
outer loop
vertex -4.3301270189221945 -2.5 -8.660254037844386
vertex -5.000000000000001 -6.123233995736767e-16 -8.660254037844386
vertex 6.123233995736766e-16 0 -10
endloop
endfacet
facet normal -0.2581988897471613 -0.06918418399436431 0.9636113749942802
outer loop
vertex 6.123233995736766e-16 0 10
vertex -5.000000000000001 -6.123233995736767e-16 8.660254037844386
vertex -4.3301270189221945 -2.5 8.660254037844386
endloop
endfacet
facet normal -0.9351131265310294 0.2505628070857312 -0.25056280708573153
outer loop
vertex -10 -1.2246467991473533e-15 0
vertex -8.660254037844389 4.999999999999997 0
vertex -7.500000000000003 4.330127018922191 -4.999999999999999
endloop
endfacet
facet normal -0.9351131265310294 0.2505628070857312 -0.25056280708573153
outer loop
vertex -10 -1.2246467991473533e-15 0
vertex -7.500000000000003 4.330127018922191 -4.999999999999999
vertex -8.660254037844387 -1.060575238724907e-15 -4.999999999999999
endloop
endfacet
facet normal -0.9351131265310294 0.2505628070857313 0.2505628070857316
outer loop
vertex -8.660254037844387 -1.060575238724907e-15 4.999999999999999
vertex -7.500000000000003 4.330127018922191 4.999999999999999
vertex -8.660254037844389 4.999999999999997 0
endloop
endfacet
facet normal -0.9351131265310294 0.2505628070857313 0.2505628070857316
outer loop
vertex -8.660254037844387 -1.060575238724907e-15 4.999999999999999
vertex -8.660254037844389 4.999999999999997 0
vertex -10 -1.2246467991473533e-15 0
endloop
endfacet
facet normal -0.6947465906068657 0.18615678789738527 -0.6947465906068657
outer loop
vertex -8.660254037844387 -1.060575238724907e-15 -4.999999999999999
vertex -7.500000000000003 4.330127018922191 -4.999999999999999
vertex -4.330127018922195 2.499999999999999 -8.660254037844386
endloop
endfacet
facet normal -0.6947465906068657 0.18615678789738527 -0.6947465906068657
outer loop
vertex -8.660254037844387 -1.060575238724907e-15 -4.999999999999999
vertex -4.330127018922195 2.499999999999999 -8.660254037844386
vertex -5.000000000000001 -6.123233995736767e-16 -8.660254037844386
endloop
endfacet
facet normal -0.6947465906068657 0.18615678789738518 0.6947465906068657
outer loop
vertex -5.000000000000001 -6.123233995736767e-16 8.660254037844386
vertex -4.330127018922195 2.499999999999999 8.660254037844386
vertex -7.500000000000003 4.330127018922191 4.999999999999999
endloop
endfacet
facet normal -0.6947465906068657 0.18615678789738518 0.6947465906068657
outer loop
vertex -5.000000000000001 -6.123233995736767e-16 8.660254037844386
vertex -7.500000000000003 4.330127018922191 4.999999999999999
vertex -8.660254037844387 -1.060575238724907e-15 4.999999999999999
endloop
endfacet
facet normal -0.2581988897471613 0.06918418399436424 -0.9636113749942802
outer loop
vertex -5.000000000000001 -6.123233995736767e-16 -8.660254037844386
vertex -4.330127018922195 2.499999999999999 -8.660254037844386
vertex 6.123233995736766e-16 0 -10
endloop
endfacet
facet normal -0.2581988897471613 0.06918418399436423 0.9636113749942802
outer loop
vertex 6.123233995736766e-16 0 10
vertex -4.330127018922195 2.499999999999999 8.660254037844386
vertex -5.000000000000001 -6.123233995736767e-16 8.660254037844386
endloop
endfacet
facet normal -0.6845503194452981 0.6845503194452974 -0.25056280708573153
outer loop
vertex -8.660254037844389 4.999999999999997 0
vertex -5.000000000000004 8.660254037844386 0
vertex -4.330127018922197 7.5 -4.999999999999999
endloop
endfacet
facet normal -0.6845503194452981 0.6845503194452974 -0.25056280708573153
outer loop
vertex -8.660254037844389 4.999999999999997 0
vertex -4.330127018922197 7.5 -4.999999999999999
vertex -7.500000000000003 4.330127018922191 -4.999999999999999
endloop
endfacet
facet normal -0.6845503194452982 0.6845503194452974 0.25056280708573153
outer loop
vertex -7.500000000000003 4.330127018922191 4.999999999999999
vertex -4.330127018922197 7.5 4.999999999999999
vertex -5.000000000000004 8.660254037844386 0
endloop
endfacet
facet normal -0.6845503194452982 0.6845503194452974 0.25056280708573153
outer loop
vertex -7.500000000000003 4.330127018922191 4.999999999999999
vertex -5.000000000000004 8.660254037844386 0
vertex -8.660254037844389 4.999999999999997 0
endloop
endfacet
facet normal -0.5085898027094805 0.50858980270948 -0.6947465906068657
outer loop
vertex -7.500000000000003 4.330127018922191 -4.999999999999999
vertex -4.330127018922197 7.5 -4.999999999999999
vertex -2.5000000000000027 4.330127018922194 -8.660254037844386
endloop
endfacet
facet normal -0.5085898027094805 0.50858980270948 -0.6947465906068657
outer loop
vertex -7.500000000000003 4.330127018922191 -4.999999999999999
vertex -2.5000000000000027 4.330127018922194 -8.660254037844386
vertex -4.330127018922195 2.499999999999999 -8.660254037844386
endloop
endfacet
facet normal -0.5085898027094805 0.50858980270948 0.6947465906068658
outer loop
vertex -4.330127018922195 2.499999999999999 8.660254037844386
vertex -2.5000000000000027 4.330127018922194 8.660254037844386
vertex -4.330127018922197 7.5 4.999999999999999
endloop
endfacet
facet normal -0.5085898027094805 0.50858980270948 0.6947465906068658
outer loop
vertex -4.330127018922195 2.499999999999999 8.660254037844386
vertex -4.330127018922197 7.5 4.999999999999999
vertex -7.500000000000003 4.330127018922191 4.999999999999999
endloop
endfacet
facet normal -0.189014705752797 0.1890147057527968 -0.9636113749942801
outer loop
vertex -4.330127018922195 2.499999999999999 -8.660254037844386
vertex -2.5000000000000027 4.330127018922194 -8.660254037844386
vertex 6.123233995736766e-16 0 -10
endloop
endfacet
facet normal -0.18901470575279705 0.18901470575279675 0.9636113749942801
outer loop
vertex 6.123233995736766e-16 0 10
vertex -2.5000000000000027 4.330127018922194 8.660254037844386
vertex -4.330127018922195 2.499999999999999 8.660254037844386
endloop
endfacet
facet normal -0.25056280708573164 0.9351131265310293 -0.2505628070857315
outer loop
vertex -5.000000000000004 8.660254037844386 0
vertex -1.8369701987210296e-15 10 0
vertex -1.5908628580873602e-15 8.660254037844387 -4.999999999999999
endloop
endfacet
facet normal -0.25056280708573164 0.9351131265310293 -0.2505628070857315
outer loop
vertex -5.000000000000004 8.660254037844386 0
vertex -1.5908628580873602e-15 8.660254037844387 -4.999999999999999
vertex -4.330127018922197 7.5 -4.999999999999999
endloop
endfacet
facet normal -0.2505628070857317 0.9351131265310294 0.2505628070857315
outer loop
vertex -4.330127018922197 7.5 4.999999999999999
vertex -1.5908628580873602e-15 8.660254037844387 4.999999999999999
vertex -1.8369701987210296e-15 10 0
endloop
endfacet
facet normal -0.2505628070857317 0.9351131265310294 0.2505628070857315
outer loop
vertex -4.330127018922197 7.5 4.999999999999999
vertex -1.8369701987210296e-15 10 0
vertex -5.000000000000004 8.660254037844386 0
endloop
endfacet
facet normal -0.18615678789738554 0.6947465906068657 -0.6947465906068657
outer loop
vertex -4.330127018922197 7.5 -4.999999999999999
vertex -1.5908628580873602e-15 8.660254037844387 -4.999999999999999
vertex -9.18485099360515e-16 5.000000000000001 -8.660254037844386
endloop
endfacet
facet normal -0.18615678789738554 0.6947465906068657 -0.6947465906068657
outer loop
vertex -4.330127018922197 7.5 -4.999999999999999
vertex -9.18485099360515e-16 5.000000000000001 -8.660254037844386
vertex -2.5000000000000027 4.330127018922194 -8.660254037844386
endloop
endfacet
facet normal -0.18615678789738552 0.6947465906068658 0.6947465906068658
outer loop
vertex -2.5000000000000027 4.330127018922194 8.660254037844386
vertex -9.18485099360515e-16 5.000000000000001 8.660254037844386
vertex -1.5908628580873602e-15 8.660254037844387 4.999999999999999
endloop
endfacet
facet normal -0.18615678789738552 0.6947465906068658 0.6947465906068658
outer loop
vertex -2.5000000000000027 4.330127018922194 8.660254037844386
vertex -1.5908628580873602e-15 8.660254037844387 4.999999999999999
vertex -4.330127018922197 7.5 4.999999999999999
endloop
endfacet
facet normal -0.06918418399436435 0.25819888974716126 -0.9636113749942801
outer loop
vertex -2.5000000000000027 4.330127018922194 -8.660254037844386
vertex -9.18485099360515e-16 5.000000000000001 -8.660254037844386
vertex 6.123233995736766e-16 0 -10
endloop
endfacet
facet normal -0.06918418399436436 0.25819888974716126 0.9636113749942801
outer loop
vertex 6.123233995736766e-16 0 10
vertex -9.18485099360515e-16 5.000000000000001 8.660254037844386
vertex -2.5000000000000027 4.330127018922194 8.660254037844386
endloop
endfacet
facet normal 0.25056280708573164 0.9351131265310293 -0.2505628070857314
outer loop
vertex -1.8369701987210296e-15 10 0
vertex 5.000000000000001 8.660254037844386 0
vertex 4.3301270189221945 7.5 -4.999999999999999
endloop
endfacet
facet normal 0.25056280708573164 0.9351131265310293 -0.2505628070857314
outer loop
vertex -1.8369701987210296e-15 10 0
vertex 4.3301270189221945 7.5 -4.999999999999999
vertex -1.5908628580873602e-15 8.660254037844387 -4.999999999999999
endloop
endfacet
facet normal 0.2505628070857316 0.9351131265310293 0.2505628070857314
outer loop
vertex -1.5908628580873602e-15 8.660254037844387 4.999999999999999
vertex 4.3301270189221945 7.5 4.999999999999999
vertex 5.000000000000001 8.660254037844386 0
endloop
endfacet
facet normal 0.2505628070857316 0.9351131265310293 0.2505628070857314
outer loop
vertex -1.5908628580873602e-15 8.660254037844387 4.999999999999999
vertex 5.000000000000001 8.660254037844386 0
vertex -1.8369701987210296e-15 10 0
endloop
endfacet
facet normal 0.18615678789738552 0.6947465906068658 -0.6947465906068657
outer loop
vertex -1.5908628580873602e-15 8.660254037844387 -4.999999999999999
vertex 4.3301270189221945 7.5 -4.999999999999999
vertex 2.500000000000001 4.330127018922194 -8.660254037844386
endloop
endfacet
facet normal 0.18615678789738552 0.6947465906068658 -0.6947465906068657
outer loop
vertex -1.5908628580873602e-15 8.660254037844387 -4.999999999999999
vertex 2.500000000000001 4.330127018922194 -8.660254037844386
vertex -9.18485099360515e-16 5.000000000000001 -8.660254037844386
endloop
endfacet
facet normal 0.18615678789738552 0.6947465906068658 0.6947465906068656
outer loop
vertex -9.18485099360515e-16 5.000000000000001 8.660254037844386
vertex 2.500000000000001 4.330127018922194 8.660254037844386
vertex 4.3301270189221945 7.5 4.999999999999999
endloop
endfacet
facet normal 0.18615678789738552 0.6947465906068658 0.6947465906068656
outer loop
vertex -9.18485099360515e-16 5.000000000000001 8.660254037844386
vertex 4.3301270189221945 7.5 4.999999999999999
vertex -1.5908628580873602e-15 8.660254037844387 4.999999999999999
endloop
endfacet
facet normal 0.06918418399436435 0.25819888974716126 -0.9636113749942801
outer loop
vertex -9.18485099360515e-16 5.000000000000001 -8.660254037844386
vertex 2.500000000000001 4.330127018922194 -8.660254037844386
vertex 6.123233995736766e-16 0 -10
endloop
endfacet
facet normal 0.06918418399436439 0.2581988897471614 0.9636113749942802
outer loop
vertex 6.123233995736766e-16 0 10
vertex 2.500000000000001 4.330127018922194 8.660254037844386
vertex -9.18485099360515e-16 5.000000000000001 8.660254037844386
endloop
endfacet
facet normal 0.6845503194452977 0.6845503194452979 -0.2505628070857316
outer loop
vertex 5.000000000000001 8.660254037844386 0
vertex 8.660254037844384 5.000000000000004 0
vertex 7.499999999999998 4.330127018922197 -4.999999999999999
endloop
endfacet
facet normal 0.6845503194452977 0.6845503194452979 -0.2505628070857316
outer loop
vertex 5.000000000000001 8.660254037844386 0
vertex 7.499999999999998 4.330127018922197 -4.999999999999999
vertex 4.3301270189221945 7.5 -4.999999999999999
endloop
endfacet
facet normal 0.6845503194452978 0.6845503194452979 0.2505628070857316
outer loop
vertex 4.3301270189221945 7.5 4.999999999999999
vertex 7.499999999999998 4.330127018922197 4.999999999999999
vertex 8.660254037844384 5.000000000000004 0
endloop
endfacet
facet normal 0.6845503194452978 0.6845503194452979 0.2505628070857316
outer loop
vertex 4.3301270189221945 7.5 4.999999999999999
vertex 8.660254037844384 5.000000000000004 0
vertex 5.000000000000001 8.660254037844386 0
endloop
endfacet
facet normal 0.5085898027094802 0.5085898027094804 -0.6947465906068657
outer loop
vertex 4.3301270189221945 7.5 -4.999999999999999
vertex 7.499999999999998 4.330127018922197 -4.999999999999999
vertex 4.330127018922193 2.5000000000000027 -8.660254037844386
endloop
endfacet
facet normal 0.5085898027094802 0.5085898027094804 -0.6947465906068657
outer loop
vertex 4.3301270189221945 7.5 -4.999999999999999
vertex 4.330127018922193 2.5000000000000027 -8.660254037844386
vertex 2.500000000000001 4.330127018922194 -8.660254037844386
endloop
endfacet
facet normal 0.5085898027094802 0.5085898027094804 0.6947465906068658
outer loop
vertex 2.500000000000001 4.330127018922194 8.660254037844386
vertex 4.330127018922193 2.5000000000000027 8.660254037844386
vertex 7.499999999999998 4.330127018922197 4.999999999999999
endloop
endfacet
facet normal 0.5085898027094802 0.5085898027094804 0.6947465906068658
outer loop
vertex 2.500000000000001 4.330127018922194 8.660254037844386
vertex 7.499999999999998 4.330127018922197 4.999999999999999
vertex 4.3301270189221945 7.5 4.999999999999999
endloop
endfacet
facet normal 0.18901470575279686 0.18901470575279697 -0.9636113749942802
outer loop
vertex 2.500000000000001 4.330127018922194 -8.660254037844386
vertex 4.330127018922193 2.5000000000000027 -8.660254037844386
vertex 6.123233995736766e-16 0 -10
endloop
endfacet
facet normal 0.1890147057527968 0.189014705752797 0.9636113749942802
outer loop
vertex 6.123233995736766e-16 0 10
vertex 4.330127018922193 2.5000000000000027 8.660254037844386
vertex 2.500000000000001 4.330127018922194 8.660254037844386
endloop
endfacet
facet normal 0.9351131265310292 0.250562807085732 -0.2505628070857315
outer loop
vertex 8.660254037844384 5.000000000000004 0
vertex 10 0 0
vertex 8.660254037844387 0 -4.999999999999999
endloop
endfacet
facet normal 0.9351131265310292 0.250562807085732 -0.2505628070857315
outer loop
vertex 8.660254037844384 5.000000000000004 0
vertex 8.660254037844387 0 -4.999999999999999
vertex 7.499999999999998 4.330127018922197 -4.999999999999999
endloop
endfacet
facet normal 0.9351131265310293 0.25056280708573203 0.25056280708573153
outer loop
vertex 7.499999999999998 4.330127018922197 4.999999999999999
vertex 8.660254037844387 0 4.999999999999999
vertex 10 0 0
endloop
endfacet
facet normal 0.9351131265310293 0.25056280708573203 0.25056280708573153
outer loop
vertex 7.499999999999998 4.330127018922197 4.999999999999999
vertex 10 0 0
vertex 8.660254037844384 5.000000000000004 0
endloop
endfacet
facet normal 0.6947465906068657 0.18615678789738582 -0.6947465906068658
outer loop
vertex 7.499999999999998 4.330127018922197 -4.999999999999999
vertex 8.660254037844387 0 -4.999999999999999
vertex 5.000000000000001 0 -8.660254037844386
endloop
endfacet
facet normal 0.6947465906068657 0.18615678789738582 -0.6947465906068658
outer loop
vertex 7.499999999999998 4.330127018922197 -4.999999999999999
vertex 5.000000000000001 0 -8.660254037844386
vertex 4.330127018922193 2.5000000000000027 -8.660254037844386
endloop
endfacet
facet normal 0.6947465906068657 0.18615678789738577 0.6947465906068657
outer loop
vertex 4.330127018922193 2.5000000000000027 8.660254037844386
vertex 5.000000000000001 0 8.660254037844386
vertex 8.660254037844387 0 4.999999999999999
endloop
endfacet
facet normal 0.6947465906068657 0.18615678789738577 0.6947465906068657
outer loop
vertex 4.330127018922193 2.5000000000000027 8.660254037844386
vertex 8.660254037844387 0 4.999999999999999
vertex 7.499999999999998 4.330127018922197 4.999999999999999
endloop
endfacet
facet normal 0.2581988897471613 0.06918418399436446 -0.9636113749942802
outer loop
vertex 4.330127018922193 2.5000000000000027 -8.660254037844386
vertex 5.000000000000001 0 -8.660254037844386
vertex 6.123233995736766e-16 0 -10
endloop
endfacet
facet normal 0.2581988897471613 0.06918418399436445 0.9636113749942802
outer loop
vertex 6.123233995736766e-16 0 10
vertex 5.000000000000001 0 8.660254037844386
vertex 4.330127018922193 2.5000000000000027 8.660254037844386
endloop
endfacet
endsolid csg.js
