0
SECTION
2
ENTITIES
0
3DFACE
8
0
10
10.000000
20
0.000000
30
0.000000
11
8.660254
21
-5.000000
31
0.000000
12
7.500000
22
-4.330127
32
-5.000000
13
7.500000
23
-4.330127
33
-5.000000
0
3DFACE
8
0
10
10.000000
20
0.000000
30
0.000000
11
7.500000
21
-4.330127
31
-5.000000
12
8.660254
22
0.000000
32
-5.000000
13
8.660254
23
0.000000
33
-5.000000
0
3DFACE
8
0
10
8.660254
20
0.000000
30
5.000000
11
7.500000
21
-4.330127
31
5.000000
12
8.660254
22
-5.000000
32
0.000000
13
8.660254
23
-5.000000
33
0.000000
0
3DFACE
8
0
10
8.660254
20
0.000000
30
5.000000
11
8.660254
21
-5.000000
31
0.000000
12
10.000000
22
0.000000
32
0.000000
13
10.000000
23
0.000000
33
0.000000
0
3DFACE
8
0
10
8.660254
20
0.000000
30
-5.000000
11
7.500000
21
-4.330127
31
-5.000000
12
4.330127
22
-2.500000
32
-8.660254
13
4.330127
23
-2.500000
33
-8.660254
0
3DFACE
8
0
10
8.660254
20
0.000000
30
-5.000000
11
4.330127
21
-2.500000
31
-8.660254
12
5.000000
22
0.000000
32
-8.660254
13
5.000000
23
0.000000
33
-8.660254
0
3DFACE
8
0
10
5.000000
20
0.000000
30
8.660254
11
4.330127
21
-2.500000
31
8.660254
12
7.500000
22
-4.330127
32
5.000000
13
7.500000
23
-4.330127
33
5.000000
0
3DFACE
8
0
10
5.000000
20
0.000000
30
8.660254
11
7.500000
21
-4.330127
31
5.000000
12
8.660254
22
0.000000
32
5.000000
13
8.660254
23
0.000000
33
5.000000
0
3DFACE
8
0
10
5.000000
20
0.000000
30
-8.660254
11
4.330127
21
-2.500000
31
-8.660254
12
0.000000
22
0.000000
32
-10.000000
13
0.000000
23
0.000000
33
-10.000000
0
3DFACE
8
0
10
0.000000
20
0.000000
30
10.000000
11
4.330127
21
-2.500000
31
8.660254
12
5.000000
22
0.000000
32
8.660254
13
5.000000
23
0.000000
33
8.660254
0
3DFACE
8
0
10
8.660254
20
-5.000000
30
0.000000
11
5.000000
21
-8.660254
31
0.000000
12
4.330127
22
-7.500000
32
-5.000000
13
4.330127
23
-7.500000
33
-5.000000
0
3DFACE
8
0
10
8.660254
20
-5.000000
30
0.000000
11
4.330127
21
-7.500000
31
-5.000000
12
7.500000
22
-4.330127
32
-5.000000
13
7.500000
23
-4.330127
33
-5.000000
0
3DFACE
8
0
10
7.500000
20
-4.330127
30
5.000000
11
4.330127
21
-7.500000
31
5.000000
12
5.000000
22
-8.660254
32
0.000000
13
5.000000
23
-8.660254
33
0.000000
0
3DFACE
8
0
10
7.500000
20
-4.330127
30
5.000000
11
5.000000
21
-8.660254
31
0.000000
12
8.660254
22
-5.000000
32
0.000000
13
8.660254
23
-5.000000
33
0.000000
0
3DFACE
8
0
10
7.500000
20
-4.330127
30
-5.000000
11
4.330127
21
-7.500000
31
-5.000000
12
2.500000
22
-4.330127
32
-8.660254
13
2.500000
23
-4.330127
33
-8.660254
0
3DFACE
8
0
10
7.500000
20
-4.330127
30
-5.000000
11
2.500000
21
-4.330127
31
-8.660254
12
4.330127
22
-2.500000
32
-8.660254
13
4.330127
23
-2.500000
33
-8.660254
0
3DFACE
8
0
10
4.330127
20
-2.500000
30
8.660254
11
2.500000
21
-4.330127
31
8.660254
12
4.330127
22
-7.500000
32
5.000000
13
4.330127
23
-7.500000
33
5.000000
0
3DFACE
8
0
10
4.330127
20
-2.500000
30
8.660254
11
4.330127
21
-7.500000
31
5.000000
12
7.500000
22
-4.330127
32
5.000000
13
7.500000
23
-4.330127
33
5.000000
0
3DFACE
8
0
10
4.330127
20
-2.500000
30
-8.660254
11
2.500000
21
-4.330127
31
-8.660254
12
0.000000
22
0.000000
32
-10.000000
13
0.000000
23
0.000000
33
-10.000000
0
3DFACE
8
0
10
0.000000
20
0.000000
30
10.000000
11
2.500000
21
-4.330127
31
8.660254
12
4.330127
22
-2.500000
32
8.660254
13
4.330127
23
-2.500000
33
8.660254
0
3DFACE
8
0
10
5.000000
20
-8.660254
30
0.000000
11
0.000000
21
-10.000000
31
0.000000
12
0.000000
22
-8.660254
32
-5.000000
13
0.000000
23
-8.660254
33
-5.000000
0
3DFACE
8
0
10
5.000000
20
-8.660254
30
0.000000
11
0.000000
21
-8.660254
31
-5.000000
12
4.330127
22
-7.500000
32
-5.000000
13
4.330127
23
-7.500000
33
-5.000000
0
3DFACE
8
0
10
4.330127
20
-7.500000
30
5.000000
11
0.000000
21
-8.660254
31
5.000000
12
0.000000
22
-10.000000
32
0.000000
13
0.000000
23
-10.000000
33
0.000000
0
3DFACE
8
0
10
4.330127
20
-7.500000
30
5.000000
11
0.000000
21
-10.000000
31
0.000000
12
5.000000
22
-8.660254
32
0.000000
13
5.000000
23
-8.660254
33
0.000000
0
3DFACE
8
0
10
4.330127
20
-7.500000
30
-5.000000
11
0.000000
21
-8.660254
31
-5.000000
12
0.000000
22
-5.000000
32
-8.660254
13
0.000000
23
-5.000000
33
-8.660254
0
3DFACE
8
0
10
4.330127
20
-7.500000
30
-5.000000
11
0.000000
21
-5.000000
31
-8.660254
12
2.500000
22
-4.330127
32
-8.660254
13
2.500000
23
-4.330127
33
-8.660254
0
3DFACE
8
0
10
2.500000
20
-4.330127
30
8.660254
11
0.000000
21
-5.000000
31
8.660254
12
0.000000
22
-8.660254
32
5.000000
13
0.000000
23
-8.660254
33
5.000000
0
3DFACE
8
0
10
2.500000
20
-4.330127
30
8.660254
11
0.000000
21
-8.660254
31
5.000000
12
4.330127
22
-7.500000
32
5.000000
13
4.330127
23
-7.500000
33
5.000000
0
3DFACE
8
0
10
2.500000
20
-4.330127
30
-8.660254
11
0.000000
21
-5.000000
31
-8.660254
12
0.000000
22
0.000000
32
-10.000000
13
0.000000
23
0.000000
33
-10.000000
0
3DFACE
8
0
10
0.000000
20
0.000000
30
10.000000
11
0.000000
21
-5.000000
31
8.660254
12
2.500000
22
-4.330127
32
8.660254
13
2.500000
23
-4.330127
33
8.660254
0
3DFACE
8
0
10
0.000000
20
-10.000000
30
0.000000
11
-5.000000
21
-8.660254
31
0.000000
12
-4.330127
22
-7.500000
32
-5.000000
13
-4.330127
23
-7.500000
33
-5.000000
0
3DFACE
8
0
10
0.000000
20
-10.000000
30
0.000000
11
-4.330127
21
-7.500000
31
-5.000000
12
0.000000
22
-8.660254
32
-5.000000
13
0.000000
23
-8.660254
33
-5.000000
0
3DFACE
8
0
10
0.000000
20
-8.660254
30
5.000000
11
-4.330127
21
-7.500000
31
5.000000
12
-5.000000
22
-8.660254
32
0.000000
13
-5.000000
23
-8.660254
33
0.000000
0
3DFACE
8
0
10
0.000000
20
-8.660254
30
5.000000
11
-5.000000
21
-8.660254
31
0.000000
12
0.000000
22
-10.000000
32
0.000000
13
0.000000
23
-10.000000
33
0.000000
0
3DFACE
8
0
10
0.000000
20
-8.660254
30
-5.000000
11
-4.330127
21
-7.500000
31
-5.000000
12
-2.500000
22
-4.330127
32
-8.660254
13
-2.500000
23
-4.330127
33
-8.660254
0
3DFACE
8
0
10
0.000000
20
-8.660254
30
-5.000000
11
-2.500000
21
-4.330127
31
-8.660254
12
0.000000
22
-5.000000
32
-8.660254
13
0.000000
23
-5.000000
33
-8.660254
0
3DFACE
8
0
10
0.000000
20
-5.000000
30
8.660254
11
-2.500000
21
-4.330127
31
8.660254
12
-4.330127
22
-7.500000
32
5.000000
13
-4.330127
23
-7.500000
33
5.000000
0
3DFACE
8
0
10
0.000000
20
-5.000000
30
8.660254
11
-4.330127
21
-7.500000
31
5.000000
12
0.000000
22
-8.660254
32
5.000000
13
0.000000
23
-8.660254
33
5.000000
0
3DFACE
8
0
10
0.000000
20
-5.000000
30
-8.660254
11
-2.500000
21
-4.330127
31
-8.660254
12
0.000000
22
0.000000
32
-10.000000
13
0.000000
23
0.000000
33
-10.000000
0
3DFACE
8
0
10
0.000000
20
0.000000
30
10.000000
11
-2.500000
21
-4.330127
31
8.660254
12
0.000000
22
-5.000000
32
8.660254
13
0.000000
23
-5.000000
33
8.660254
0
3DFACE
8
0
10
-5.000000
20
-8.660254
30
0.000000
11
-8.660254
21
-5.000000
31
0.000000
12
-7.500000
22
-4.330127
32
-5.000000
13
-7.500000
23
-4.330127
33
-5.000000
0
3DFACE
8
0
10
-5.000000
20
-8.660254
30
0.000000
11
-7.500000
21
-4.330127
31
-5.000000
12
-4.330127
22
-7.500000
32
-5.000000
13
-4.330127
23
-7.500000
33
-5.000000
0
3DFACE
8
0
10
-4.330127
20
-7.500000
30
5.000000
11
-7.500000
21
-4.330127
31
5.000000
12
-8.660254
22
-5.000000
32
0.000000
13
-8.660254
23
-5.000000
33
0.000000
0
3DFACE
8
0
10
-4.330127
20
-7.500000
30
5.000000
11
-8.660254
21
-5.000000
31
0.000000
12
-5.000000
22
-8.660254
32
0.000000
13
-5.000000
23
-8.660254
33
0.000000
0
3DFACE
8
0
10
-4.330127
20
-7.500000
30
-5.000000
11
-7.500000
21
-4.330127
31
-5.000000
12
-4.330127
22
-2.500000
32
-8.660254
13
-4.330127
23
-2.500000
33
-8.660254
0
3DFACE
8
0
10
-4.330127
20
-7.500000
30
-5.000000
11
-4.330127
21
-2.500000
31
-8.660254
12
-2.500000
22
-4.330127
32
-8.660254
13
-2.500000
23
-4.330127
33
-8.660254
0
3DFACE
8
0
10
-2.500000
20
-4.330127
30
8.660254
11
-4.330127
21
-2.500000
31
8.660254
12
-7.500000
22
-4.330127
32
5.000000
13
-7.500000
23
-4.330127
33
5.000000
0
3DFACE
8
0
10
-2.500000
20
-4.330127
30
8.660254
11
-7.500000
21
-4.330127
31
5.000000
12
-4.330127
22
-7.500000
32
5.000000
13
-4.330127
23
-7.500000
33
5.000000
0
3DFACE
8
0
10
-2.500000
20
-4.330127
30
-8.660254
11
-4.330127
21
-2.500000
31
-8.660254
12
0.000000
22
0.000000
32
-10.000000
13
0.000000
23
0.000000
33
-10.000000
0
3DFACE
8
0
10
0.000000
20
0.000000
30
10.000000
11
-4.330127
21
-2.500000
31
8.660254
12
-2.500000
22
-4.330127
32
8.660254
13
-2.500000
23
-4.330127
33
8.660254
0
3DFACE
8
0
10
-8.660254
20
-5.000000
30
0.000000
11
-10.000000
21
-0.000000
31
0.000000
12
-8.660254
22
-0.000000
32
-5.000000
13
-8.660254
23
-0.000000
33
-5.000000
0
3DFACE
8
0
10
-8.660254
20
-5.000000
30
0.000000
11
-8.660254
21
-0.000000
31
-5.000000
12
-7.500000
22
-4.330127
32
-5.000000
13
-7.500000
23
-4.330127
33
-5.000000
0
3DFACE
8
0
10
-7.500000
20
-4.330127
30
5.000000
11
-8.660254
21
-0.000000
31
5.000000
12
-10.000000
22
-0.000000
32
0.000000
13
-10.000000
23
-0.000000
33
0.000000
0
3DFACE
8
0
10
-7.500000
20
-4.330127
30
5.000000
11
-10.000000
21
-0.000000
31
0.000000
12
-8.660254
22
-5.000000
32
0.000000
13
-8.660254
23
-5.000000
33
0.000000
0
3DFACE
8
0
10
-7.500000
20
-4.330127
30
-5.000000
11
-8.660254
21
-0.000000
31
-5.000000
12
-5.000000
22
-0.000000
32
-8.660254
13
-5.000000
23
-0.000000
33
-8.660254
0
3DFACE
8
0
10
-7.500000
20
-4.330127
30
-5.000000
11
-5.000000
21
-0.000000
31
-8.660254
12
-4.330127
22
-2.500000
32
-8.660254
13
-4.330127
23
-2.500000
33
-8.660254
0
3DFACE
8
0
10
-4.330127
20
-2.500000
30
8.660254
11
-5.000000
21
-0.000000
31
8.660254
12
-8.660254
22
-0.000000
32
5.000000
13
-8.660254
23
-0.000000
33
5.000000
0
3DFACE
8
0
10
-4.330127
20
-2.500000
30
8.660254
11
-8.660254
21
-0.000000
31
5.000000
12
-7.500000
22
-4.330127
32
5.000000
13
-7.500000
23
-4.330127
33
5.000000
0
3DFACE
8
0
10
-4.330127
20
-2.500000
30
-8.660254
11
-5.000000
21
-0.000000
31
-8.660254
12
0.000000
22
0.000000
32
-10.000000
13
0.000000
23
0.000000
33
-10.000000
0
3DFACE
8
0
10
0.000000
20
0.000000
30
10.000000
11
-5.000000
21
-0.000000
31
8.660254
12
-4.330127
22
-2.500000
32
8.660254
13
-4.330127
23
-2.500000
33
8.660254
0
3DFACE
8
0
10
-10.000000
20
-0.000000
30
0.000000
11
-8.660254
21
5.000000
31
0.000000
12
-7.500000
22
4.330127
32
-5.000000
13
-7.500000
23
4.330127
33
-5.000000
0
3DFACE
8
0
10
-10.000000
20
-0.000000
30
0.000000
11
-7.500000
21
4.330127
31
-5.000000
12
-8.660254
22
-0.000000
32
-5.000000
13
-8.660254
23
-0.000000
33
-5.000000
0
3DFACE
8
0
10
-8.660254
20
-0.000000
30
5.000000
11
-7.500000
21
4.330127
31
5.000000
12
-8.660254
22
5.000000
32
0.000000
13
-8.660254
23
5.000000
33
0.000000
0
3DFACE
8
0
10
-8.660254
20
-0.000000
30
5.000000
11
-8.660254
21
5.000000
31
0.000000
12
-10.000000
22
-0.000000
32
0.000000
13
-10.000000
23
-0.000000
33
0.000000
0
3DFACE
8
0
10
-8.660254
20
-0.000000
30
-5.000000
11
-7.500000
21
4.330127
31
-5.000000
12
-4.330127
22
2.500000
32
-8.660254
13
-4.330127
23
2.500000
33
-8.660254
0
3DFACE
8
0
10
-8.660254
20
-0.000000
30
-5.000000
11
-4.330127
21
2.500000
31
-8.660254
12
-5.000000
22
-0.000000
32
-8.660254
13
-5.000000
23
-0.000000
33
-8.660254
0
3DFACE
8
0
10
-5.000000
20
-0.000000
30
8.660254
11
-4.330127
21
2.500000
31
8.660254
12
-7.500000
22
4.330127
32
5.000000
13
-7.500000
23
4.330127
33
5.000000
0
3DFACE
8
0
10
-5.000000
20
-0.000000
30
8.660254
11
-7.500000
21
4.330127
31
5.000000
12
-8.660254
22
-0.000000
32
5.000000
13
-8.660254
23
-0.000000
33
5.000000
0
3DFACE
8
0
10
-5.000000
20
-0.000000
30
-8.660254
11
-4.330127
21
2.500000
31
-8.660254
12
0.000000
22
0.000000
32
-10.000000
13
0.000000
23
0.000000
33
-10.000000
0
3DFACE
8
0
10
0.000000
20
0.000000
30
10.000000
11
-4.330127
21
2.500000
31
8.660254
12
-5.000000
22
-0.000000
32
8.660254
13
-5.000000
23
-0.000000
33
8.660254
0
3DFACE
8
0
10
-8.660254
20
5.000000
30
0.000000
11
-5.000000
21
8.660254
31
0.000000
12
-4.330127
22
7.500000
32
-5.000000
13
-4.330127
23
7.500000
33
-5.000000
0
3DFACE
8
0
10
-8.660254
20
5.000000
30
0.000000
11
-4.330127
21
7.500000
31
-5.000000
12
-7.500000
22
4.330127
32
-5.000000
13
-7.500000
23
4.330127
33
-5.000000
0
3DFACE
8
0
10
-7.500000
20
4.330127
30
5.000000
11
-4.330127
21
7.500000
31
5.000000
12
-5.000000
22
8.660254
32
0.000000
13
-5.000000
23
8.660254
33
0.000000
0
3DFACE
8
0
10
-7.500000
20
4.330127
30
5.000000
11
-5.000000
21
8.660254
31
0.000000
12
-8.660254
22
5.000000
32
0.000000
13
-8.660254
23
5.000000
33
0.000000
0
3DFACE
8
0
10
-7.500000
20
4.330127
30
-5.000000
11
-4.330127
21
7.500000
31
-5.000000
12
-2.500000
22
4.330127
32
-8.660254
13
-2.500000
23
4.330127
33
-8.660254
0
3DFACE
8
0
10
-7.500000
20
4.330127
30
-5.000000
11
-2.500000
21
4.330127
31
-8.660254
12
-4.330127
22
2.500000
32
-8.660254
13
-4.330127
23
2.500000
33
-8.660254
0
3DFACE
8
0
10
-4.330127
20
2.500000
30
8.660254
11
-2.500000
21
4.330127
31
8.660254
12
-4.330127
22
7.500000
32
5.000000
13
-4.330127
23
7.500000
33
5.000000
0
3DFACE
8
0
10
-4.330127
20
2.500000
30
8.660254
11
-4.330127
21
7.500000
31
5.000000
12
-7.500000
22
4.330127
32
5.000000
13
-7.500000
23
4.330127
33
5.000000
0
3DFACE
8
0
10
-4.330127
20
2.500000
30
-8.660254
11
-2.500000
21
4.330127
31
-8.660254
12
0.000000
22
0.000000
32
-10.000000
13
0.000000
23
0.000000
33
-10.000000
0
3DFACE
8
0
10
0.000000
20
0.000000
30
10.000000
11
-2.500000
21
4.330127
31
8.660254
12
-4.330127
22
2.500000
32
8.660254
13
-4.330127
23
2.500000
33
8.660254
0
3DFACE
8
0
10
-5.000000
20
8.660254
30
0.000000
11
-0.000000
21
10.000000
31
0.000000
12
-0.000000
22
8.660254
32
-5.000000
13
-0.000000
23
8.660254
33
-5.000000
0
3DFACE
8
0
10
-5.000000
20
8.660254
30
0.000000
11
-0.000000
21
8.660254
31
-5.000000
12
-4.330127
22
7.500000
32
-5.000000
13
-4.330127
23
7.500000
33
-5.000000
0
3DFACE
8
0
10
-4.330127
20
7.500000
30
5.000000
11
-0.000000
21
8.660254
31
5.000000
12
-0.000000
22
10.000000
32
0.000000
13
-0.000000
23
10.000000
33
0.000000
0
3DFACE
8
0
10
-4.330127
20
7.500000
30
5.000000
11
-0.000000
21
10.000000
31
0.000000
12
-5.000000
22
8.660254
32
0.000000
13
-5.000000
23
8.660254
33
0.000000
0
3DFACE
8
0
10
-4.330127
20
7.500000
30
-5.000000
11
-0.000000
21
8.660254
31
-5.000000
12
-0.000000
22
5.000000
32
-8.660254
13
-0.000000
23
5.000000
33
-8.660254
0
3DFACE
8
0
10
-4.330127
20
7.500000
30
-5.000000
11
-0.000000
21
5.000000
31
-8.660254
12
-2.500000
22
4.330127
32
-8.660254
13
-2.500000
23
4.330127
33
-8.660254
0
3DFACE
8
0
10
-2.500000
20
4.330127
30
8.660254
11
-0.000000
21
5.000000
31
8.660254
12
-0.000000
22
8.660254
32
5.000000
13
-0.000000
23
8.660254
33
5.000000
0
3DFACE
8
0
10
-2.500000
20
4.330127
30
8.660254
11
-0.000000
21
8.660254
31
5.000000
12
-4.330127
22
7.500000
32
5.000000
13
-4.330127
23
7.500000
33
5.000000
0
3DFACE
8
0
10
-2.500000
20
4.330127
30
-8.660254
11
-0.000000
21
5.000000
31
-8.660254
12
0.000000
22
0.000000
32
-10.000000
13
0.000000
23
0.000000
33
-10.000000
0
3DFACE
8
0
10
0.000000
20
0.000000
30
10.000000
11
-0.000000
21
5.000000
31
8.660254
12
-2.500000
22
4.330127
32
8.660254
13
-2.500000
23
4.330127
33
8.660254
0
3DFACE
8
0
10
-0.000000
20
10.000000
30
0.000000
11
5.000000
21
8.660254
31
0.000000
12
4.330127
22
7.500000
32
-5.000000
13
4.330127
23
7.500000
33
-5.000000
0
3DFACE
8
0
10
-0.000000
20
10.000000
30
0.000000
11
4.330127
21
7.500000
31
-5.000000
12
-0.000000
22
8.660254
32
-5.000000
13
-0.000000
23
8.660254
33
-5.000000
0
3DFACE
8
0
10
-0.000000
20
8.660254
30
5.000000
11
4.330127
21
7.500000
31
5.000000
12
5.000000
22
8.660254
32
0.000000
13
5.000000
23
8.660254
33
0.000000
0
3DFACE
8
0
10
-0.000000
20
8.660254
30
5.000000
11
5.000000
21
8.660254
31
0.000000
12
-0.000000
22
10.000000
32
0.000000
13
-0.000000
23
10.000000
33
0.000000
0
3DFACE
8
0
10
-0.000000
20
8.660254
30
-5.000000
11
4.330127
21
7.500000
31
-5.000000
12
2.500000
22
4.330127
32
-8.660254
13
2.500000
23
4.330127
33
-8.660254
0
3DFACE
8
0
10
-0.000000
20
8.660254
30
-5.000000
11
2.500000
21
4.330127
31
-8.660254
12
-0.000000
22
5.000000
32
-8.660254
13
-0.000000
23
5.000000
33
-8.660254
0
3DFACE
8
0
10
-0.000000
20
5.000000
30
8.660254
11
2.500000
21
4.330127
31
8.660254
12
4.330127
22
7.500000
32
5.000000
13
4.330127
23
7.500000
33
5.000000
0
3DFACE
8
0
10
-0.000000
20
5.000000
30
8.660254
11
4.330127
21
7.500000
31
5.000000
12
-0.000000
22
8.660254
32
5.000000
13
-0.000000
23
8.660254
33
5.000000
0
3DFACE
8
0
10
-0.000000
20
5.000000
30
-8.660254
11
2.500000
21
4.330127
31
-8.660254
12
0.000000
22
0.000000
32
-10.000000
13
0.000000
23
0.000000
33
-10.000000
0
3DFACE
8
0
10
0.000000
20
0.000000
30
10.000000
11
2.500000
21
4.330127
31
8.660254
12
-0.000000
22
5.000000
32
8.660254
13
-0.000000
23
5.000000
33
8.660254
0
3DFACE
8
0
10
5.000000
20
8.660254
30
0.000000
11
8.660254
21
5.000000
31
0.000000
12
7.500000
22
4.330127
32
-5.000000
13
7.500000
23
4.330127
33
-5.000000
0
3DFACE
8
0
10
5.000000
20
8.660254
30
0.000000
11
7.500000
21
4.330127
31
-5.000000
12
4.330127
22
7.500000
32
-5.000000
13
4.330127
23
7.500000
33
-5.000000
0
3DFACE
8
0
10
4.330127
20
7.500000
30
5.000000
11
7.500000
21
4.330127
31
5.000000
12
8.660254
22
5.000000
32
0.000000
13
8.660254
23
5.000000
33
0.000000
0
3DFACE
8
0
10
4.330127
20
7.500000
30
5.000000
11
8.660254
21
5.000000
31
0.000000
12
5.000000
22
8.660254
32
0.000000
13
5.000000
23
8.660254
33
0.000000
0
3DFACE
8
0
10
4.330127
20
7.500000
30
-5.000000
11
7.500000
21
4.330127
31
-5.000000
12
4.330127
22
2.500000
32
-8.660254
13
4.330127
23
2.500000
33
-8.660254
0
3DFACE
8
0
10
4.330127
20
7.500000
30
-5.000000
11
4.330127
21
2.500000
31
-8.660254
12
2.500000
22
4.330127
32
-8.660254
13
2.500000
23
4.330127
33
-8.660254
0
3DFACE
8
0
10
2.500000
20
4.330127
30
8.660254
11
4.330127
21
2.500000
31
8.660254
12
7.500000
22
4.330127
32
5.000000
13
7.500000
23
4.330127
33
5.000000
0
3DFACE
8
0
10
2.500000
20
4.330127
30
8.660254
11
7.500000
21
4.330127
31
5.000000
12
4.330127
22
7.500000
32
5.000000
13
4.330127
23
7.500000
33
5.000000
0
3DFACE
8
0
10
2.500000
20
4.330127
30
-8.660254
11
4.330127
21
2.500000
31
-8.660254
12
0.000000
22
0.000000
32
-10.000000
13
0.000000
23
0.000000
33
-10.000000
0
3DFACE
8
0
10
0.000000
20
0.000000
30
10.000000
11
4.330127
21
2.500000
31
8.660254
12
2.500000
22
4.330127
32
8.660254
13
2.500000
23
4.330127
33
8.660254
0
3DFACE
8
0
10
8.660254
20
5.000000
30
0.000000
11
10.000000
21
0.000000
31
0.000000
12
8.660254
22
0.000000
32
-5.000000
13
8.660254
23
0.000000
33
-5.000000
0
3DFACE
8
0
10
8.660254
20
5.000000
30
0.000000
11
8.660254
21
0.000000
31
-5.000000
12
7.500000
22
4.330127
32
-5.000000
13
7.500000
23
4.330127
33
-5.000000
0
3DFACE
8
0
10
7.500000
20
4.330127
30
5.000000
11
8.660254
21
0.000000
31
5.000000
12
10.000000
22
0.000000
32
0.000000
13
10.000000
23
0.000000
33
0.000000
0
3DFACE
8
0
10
7.500000
20
4.330127
30
5.000000
11
10.000000
21
0.000000
31
0.000000
12
8.660254
22
5.000000
32
0.000000
13
8.660254
23
5.000000
33
0.000000
0
3DFACE
8
0
10
7.500000
20
4.330127
30
-5.000000
11
8.660254
21
0.000000
31
-5.000000
12
5.000000
22
0.000000
32
-8.660254
13
5.000000
23
0.000000
33
-8.660254
0
3DFACE
8
0
10
7.500000
20
4.330127
30
-5.000000
11
5.000000
21
0.000000
31
-8.660254
12
4.330127
22
2.500000
32
-8.660254
13
4.330127
23
2.500000
33
-8.660254
0
3DFACE
8
0
10
4.330127
20
2.500000
30
8.660254
11
5.000000
21
0.000000
31
8.660254
12
8.660254
22
0.000000
32
5.000000
13
8.660254
23
0.000000
33
5.000000
0
3DFACE
8
0
10
4.330127
20
2.500000
30
8.660254
11
8.660254
21
0.000000
31
5.000000
12
7.500000
22
4.330127
32
5.000000
13
7.500000
23
4.330127
33
5.000000
0
3DFACE
8
0
10
4.330127
20
2.500000
30
-8.660254
11
5.000000
21
0.000000
31
-8.660254
12
0.000000
22
0.000000
32
-10.000000
13
0.000000
23
0.000000
33
-10.000000
0
3DFACE
8
0
10
0.000000
20
0.000000
30
10.000000
11
5.000000
21
0.000000
31
8.660254
12
4.330127
22
2.500000
32
8.660254
13
4.330127
23
2.500000
33
8.660254
0
ENDSEC
0
EOF
