  0
SECTION
  2
HEADER
  9
$ACADVER
  1
AC1009
  9
$INSBASE
 10
0.0
 20
0.0
 30
0.0
  9
$EXTMIN
 10
-0.2
 20
-0.01
 30
0.0
  9
$EXTMAX
 10
34.509999999999998
 20
23.0100000000000016
 30
0.0
  9
$LIMMIN
 10
0.0
 20
0.0
  9
$LIMMAX
 10
12.0
 20
9.0
  9
$ORTHOMODE
 70
     0
  9
$REGENMODE
 70
     1
  9
$FILLMODE
 70
     1
  9
$QTEXTMODE
 70
     0
  9
$MIRRTEXT
 70
     0
  9
$DRAGMODE
 70
     2
  9
$LTSCALE
 40
1.0
  9
$OSMODE
 70
    37
  9
$ATTMODE
 70
     1
  9
$TEXTSIZE
 40
0.2
  9
$TRACEWID
 40
0.05
  9
$TEXTSTYLE
  7
STANDARD
  9
$CLAYER
  8
0
  9
$CELTYPE
  6
BYLAYER
  9
$CECOLOR
 62
   256
  9
$DIMSCALE
 40
1.0
  9
$DIMASZ
 40
0.18
  9
$DIMEXO
 40
0.0625
  9
$DIMDLI
 40
0.38
  9
$DIMRND
 40
0.0
  9
$DIMDLE
 40
0.0
  9
$DIMEXE
 40
0.18
  9
$DIMTP
 40
0.0
  9
$DIMTM
 40
0.0
  9
$DIMTXT
 40
0.18
  9
$DIMCEN
 40
0.09
  9
$DIMTSZ
 40
0.0
  9
$DIMTOL
 70
     0
  9
$DIMLIM
 70
     0
  9
$DIMTIH
 70
     1
  9
$DIMTOH
 70
     1
  9
$DIMSE1
 70
     0
  9
$DIMSE2
 70
     0
  9
$DIMTAD
 70
     0
  9
$DIMZIN
 70
     0
  9
$DIMBLK
  1

  9
$DIMASO
 70
     1
  9
$DIMSHO
 70
     1
  9
$DIMPOST
  1

  9
$DIMAPOST
  1

  9
$DIMALT
 70
     0
  9
$DIMALTD
 70
     2
  9
$DIMALTF
 40
25.3999999999999986
  9
$DIMLFAC
 40
1.0
  9
$DIMTOFL
 70
     0
  9
$DIMTVP
 40
0.0
  9
$DIMTIX
 70
     0
  9
$DIMSOXD
 70
     0
  9
$DIMSAH
 70
     0
  9
$DIMBLK1
  1

  9
$DIMBLK2
  1

  9
$DIMSTYLE
  2
STANDARD
  9
$DIMCLRD
 70
     0
  9
$DIMCLRE
 70
     0
  9
$DIMCLRT
 70
     0
  9
$DIMTFAC
 40
1.0
  9
$DIMGAP
 40
0.09
  9
$LUNITS
 70
     2
  9
$LUPREC
 70
     4
  9
$SKETCHINC
 40
0.1
  9
$FILLETRAD
 40
0.0
  9
$AUNITS
 70
     0
  9
$AUPREC
 70
     0
  9
$MENU
  1
.
  9
$ELEVATION
 40
0.0
  9
$PELEVATION
 40
0.0
  9
$THICKNESS
 40
0.0
  9
$LIMCHECK
 70
     0
  9
$BLIPMODE
 70
     0
  9
$CHAMFERA
 40
0.0
  9
$CHAMFERB
 40
0.0
  9
$SKPOLY
 70
     0
  9
$TDCREATE
 40
2458006.8698611110448837
  9
$TDUPDATE
 40
2458006.8704629628919065
  9
$TDINDWG
 40
0.0006018519
  9
$TDUSRTIMER
 40
0.0006018519
  9
$USRTIMER
 70
     1
  9
$ANGBASE
 50
0.0
  9
$ANGDIR
 70
     0
  9
$PDMODE
 70
     0
  9
$PDSIZE
 40
0.0
  9
$PLINEWID
 40
0.0
  9
$COORDS
 70
     1
  9
$SPLFRAME
 70
     0
  9
$SPLINETYPE
 70
     6
  9
$SPLINESEGS
 70
     8
  9
$ATTDIA
 70
     1
  9
$ATTREQ
 70
     1
  9
$HANDLING
 70
     1
  9
$HANDSEED
  5
146
  9
$SURFTAB1
 70
     6
  9
$SURFTAB2
 70
     6
  9
$SURFTYPE
 70
     6
  9
$SURFU
 70
     6
  9
$SURFV
 70
     6
  9
$UCSNAME
  2

  9
$UCSORG
 10
0.0
 20
0.0
 30
0.0
  9
$UCSXDIR
 10
1.0
 20
0.0
 30
0.0
  9
$UCSYDIR
 10
0.0
 20
1.0
 30
0.0
  9
$PUCSNAME
  2

  9
$PUCSORG
 10
0.0
 20
0.0
 30
0.0
  9
$PUCSXDIR
 10
1.0
 20
0.0
 30
0.0
  9
$PUCSYDIR
 10
0.0
 20
1.0
 30
0.0
  9
$USERI1
 70
     0
  9
$USERI2
 70
     0
  9
$USERI3
 70
     0
  9
$USERI4
 70
     0
  9
$USERI5
 70
     0
  9
$USERR1
 40
0.0
  9
$USERR2
 40
0.0
  9
$USERR3
 40
0.0
  9
$USERR4
 40
0.0
  9
$USERR5
 40
0.0
  9
$WORLDVIEW
 70
     1
  9
$SHADEDGE
 70
     3
  9
$SHADEDIF
 70
    70
  9
$TILEMODE
 70
     1
  9
$MAXACTVP
 70
    64
  9
$PLIMCHECK
 70
     0
  9
$PEXTMIN
 10
1.0000000000000000E+20
 20
1.0000000000000000E+20
 30
1.0000000000000000E+20
  9
$PEXTMAX
 10
-1.0000000000000000E+20
 20
-1.0000000000000000E+20
 30
-1.0000000000000000E+20
  9
$PLIMMIN
 10
-0.7524054877282309
 20
-0.5025428238148726
  9
$PLIMMAX
 10
35.247595473455327
 20
23.4974562150015593
  9
$UNITMODE
 70
     0
  9
$VISRETAIN
 70
     1
  9
$PLINEGEN
 70
     0
  9
$PSLTSCALE
 70
     1
  0
ENDSEC
  0
SECTION
  2
TABLES
  0
TABLE
  2
VPORT
 70
     1
  0
VPORT
  2
*ACTIVE
 70
     0
 10
0.0
 20
0.0
 11
1.0
 21
1.0
 12
20.2925243289651611
 22
11.5000000535976206
 13
0.0
 23
0.0
 14
0.5
 24
0.5
 15
0.5
 25
0.5
 16
0.0
 26
0.0
 36
1.0
 17
0.0
 27
0.0
 37
0.0
 40
26.2643232694661712
 41
1.572948328267477
 42
50.0
 43
0.0
 44
0.0
 50
0.0
 51
0.0
 71
     0
 72
  1000
 73
     1
 74
     3
 75
     0
 76
     0
 77
     0
 78
     0
  0
ENDTAB
  0
TABLE
  2
LTYPE
 70
     1
  0
LTYPE
  2
CONTINUOUS
 70
     0
  3
Solid line
 72
    65
 73
     0
 40
0.0
  0
ENDTAB
  0
TABLE
  2
LAYER
 70
     2
  0
LAYER
  2
0
 70
     0
 62
     7
  6
CONTINUOUS
  0
LAYER
  2
TITLE_BLOCK
 70
     0
 62
     7
  6
CONTINUOUS
  0
ENDTAB
  0
TABLE
  2
STYLE
 70
     2
  0
STYLE
  2
STANDARD
 70
     0
 40
0.0
 41
1.0
 50
0.0
 71
     0
 42
0.2
  3
txt
  4

  0
STYLE
  2
ROMAN
 70
     0
 40
0.0
 41
1.0
 50
0.0
 71
     0
 42
0.2
  3
ROMANS.SHX
  4

  0
ENDTAB
  0
TABLE
  2
VIEW
 70
     0
  0
ENDTAB
  0
TABLE
  2
UCS
 70
     0
  0
ENDTAB
  0
TABLE
  2
APPID
 70
     3
  0
APPID
  2
ACAD
 70
     0
  0
APPID
  2
ACAD_NAV_VCDISPLAY
 70
     0
  0
APPID
  2
ACAD_MLEADERVER
 70
     0
  0
ENDTAB
  0
TABLE
  2
DIMSTYLE
 70
     1
  0
DIMSTYLE
  2
STANDARD
 70
     0
  3

  4

  5

  6

  7

 40
1.0
 41
0.18
 42
0.0625
 43
0.38
 44
0.18
 45
0.0
 46
0.0
 47
0.0
 48
0.0
140
0.18
141
0.09
142
0.0
143
25.3999999999999986
144
1.0
145
0.0
146
1.0
147
0.09
 71
     0
 72
     0
 73
     1
 74
     1
 75
     0
 76
     0
 77
     0
 78
     0
170
     0
171
     2
172
     0
173
     0
174
     0
175
     0
176
     0
177
     0
178
     0
  0
ENDTAB
  0
ENDSEC
  0
SECTION
  2
BLOCKS
  0
BLOCK
  8
0
  2
$MODEL_SPACE
 70
     2
 10
0.0
 20
0.0
 30
0.0
  3
$MODEL_SPACE
  1

  0
ENDBLK
  5
9
  8
0
  0
BLOCK
 67
     1
  8
0
  2
$PAPER_SPACE
 70
     0
 10
0.0
 20
0.0
 30
0.0
  3
$PAPER_SPACE
  1

  0
ENDBLK
  5
E
 67
     1
  8
0
  0
ENDSEC
  0
SECTION
  2
ENTITIES
  0
POLYLINE
  5
24
  8
TITLE_BLOCK
 66
     1
 10
0.0
 20
0.0
 30
0.0
 70
     1
 40
0.02
 41
0.02
  0
VERTEX
  5
E8
  8
TITLE_BLOCK
 10
1.5
 20
1.25
 30
0.0
  0
VERTEX
  5
E9
  8
TITLE_BLOCK
 10
32.25
 20
1.25
 30
0.0
  0
VERTEX
  5
EA
  8
TITLE_BLOCK
 10
32.25
 20
21.75
 30
0.0
  0
VERTEX
  5
EB
  8
TITLE_BLOCK
 10
1.5
 20
21.75
 30
0.0
  0
SEQEND
  5
EC
  8
TITLE_BLOCK
  0
ATTDEF
  5
26
  8
0
 62
     0
 10
-0.05
 20
3.0
 30
0.0
 40
0.15
  1

 50
90.0
  7
ROMAN
  3
Revision date:
  2
REVDATE
 70
     8
  0
POLYLINE
  5
28
  8
TITLE_BLOCK
 66
     1
 10
0.0
 20
0.0
 30
0.0
 40
0.02
 41
0.02
  0
VERTEX
  5
ED
  8
TITLE_BLOCK
 10
0.0
 20
2.0
 30
0.0
  0
VERTEX
  5
EE
  8
TITLE_BLOCK
 10
0.0
 20
0.0
 30
0.0
  0
VERTEX
  5
EF
  8
TITLE_BLOCK
 10
2.0
 20
0.0
 30
0.0
  0
SEQEND
  5
F0
  8
TITLE_BLOCK
  0
ATTDEF
  5
29
  8
0
 62
     0
 10
-0.05
 20
0.0
 30
0.0
 40
0.15
  1

 50
90.0
  7
ROMAN
  3
Author:
  2
USER
 70
     8
  0
ATTDEF
  5
2A
  8
0
 62
     0
 10
-0.05
 20
6.0
 30
0.0
 40
0.15
  1

 50
90.0
  7
ROMAN
  3
File name:
  2
FNAME
 70
     8
  0
POLYLINE
  5
2B
  8
TITLE_BLOCK
 66
     1
 10
0.0
 20
0.0
 30
0.0
 40
0.02
 41
0.02
  0
VERTEX
  5
F1
  8
TITLE_BLOCK
 10
0.0
 20
21.0
 30
0.0
  0
VERTEX
  5
F2
  8
TITLE_BLOCK
 10
0.0
 20
23.0
 30
0.0
  0
VERTEX
  5
F3
  8
TITLE_BLOCK
 10
2.0
 20
23.0
 30
0.0
  0
SEQEND
  5
F4
  8
TITLE_BLOCK
  0
POLYLINE
  5
2C
  8
TITLE_BLOCK
 66
     1
 10
0.0
 20
0.0
 30
0.0
 70
     1
 40
0.02
 41
0.02
  0
VERTEX
  5
F5
  8
TITLE_BLOCK
 10
32.375
 20
1.25
 30
0.0
  0
VERTEX
  5
F6
  8
TITLE_BLOCK
 10
34.0
 20
1.25
 30
0.0
  0
VERTEX
  5
F7
  8
TITLE_BLOCK
 10
34.0
 20
21.75
 30
0.0
  0
VERTEX
  5
F8
  8
TITLE_BLOCK
 10
32.375
 20
21.75
 30
0.0
  0
SEQEND
  5
F9
  8
TITLE_BLOCK
  0
POLYLINE
  5
2D
  8
TITLE_BLOCK
 66
     1
 10
0.0
 20
0.0
 30
0.0
 40
0.02
 41
0.02
  0
VERTEX
  5
FA
  8
TITLE_BLOCK
 10
32.5
 20
0.0
 30
0.0
  0
VERTEX
  5
FB
  8
TITLE_BLOCK
 10
34.5
 20
0.0
 30
0.0
  0
VERTEX
  5
FC
  8
TITLE_BLOCK
 10
34.5
 20
2.0
 30
0.0
  0
SEQEND
  5
FD
  8
TITLE_BLOCK
  0
LINE
  5
2E
  8
TITLE_BLOCK
 10
32.375
 20
3.6942999999999979
 30
0.0
 11
34.0
 21
3.6942999999999979
 31
0.0
  0
LINE
  5
2F
  8
TITLE_BLOCK
 10
32.375
 20
3.3192999999999979
 30
0.0
 11
34.0
 21
3.3192999999999979
 31
0.0
  0
LINE
  5
30
  8
TITLE_BLOCK
 10
32.375
 20
2.9442999999999979
 30
0.0
 11
34.0
 21
2.9442999999999979
 31
0.0
  0
LINE
  5
31
  8
TITLE_BLOCK
 10
32.375
 20
2.5692999999999979
 30
0.0
 11
34.0
 21
2.5692999999999979
 31
0.0
  0
LINE
  5
32
  8
TITLE_BLOCK
 10
32.375
 20
4.0692999999999984
 30
0.0
 11
34.0
 21
4.0692999999999984
 31
0.0
  0
POLYLINE
  5
33
  8
TITLE_BLOCK
 66
     1
 10
0.0
 20
0.0
 30
0.0
 40
0.02
 41
0.02
  0
VERTEX
  5
FE
  8
TITLE_BLOCK
 10
32.5
 20
23.0
 30
0.0
  0
VERTEX
  5
FF
  8
TITLE_BLOCK
 10
34.5
 20
23.0
 30
0.0
  0
VERTEX
  5
100
  8
TITLE_BLOCK
 10
34.5
 20
21.0
 30
0.0
  0
SEQEND
  5
101
  8
TITLE_BLOCK
  0
LINE
  5
34
  8
TITLE_BLOCK
 10
33.625
 20
19.5
 30
0.0
 11
33.625
 21
21.375
 31
0.0
  0
LINE
  5
35
  8
TITLE_BLOCK
 10
32.375
 20
20.75
 30
0.0
 11
34.0
 21
20.75
 31
0.0
  0
LINE
  5
36
  8
TITLE_BLOCK
 10
32.375
 20
20.5
 30
0.0
 11
34.0
 21
20.5
 31
0.0
  0
LINE
  5
37
  8
TITLE_BLOCK
 10
32.375
 20
20.25
 30
0.0
 11
34.0
 21
20.25
 31
0.0
  0
LINE
  5
38
  8
TITLE_BLOCK
 10
32.375
 20
20.0
 30
0.0
 11
34.0
 21
20.0
 31
0.0
  0
LINE
  5
39
  8
TITLE_BLOCK
 10
32.375
 20
19.75
 30
0.0
 11
34.0
 21
19.75
 31
0.0
  0
LINE
  5
3A
  8
TITLE_BLOCK
 10
32.375
 20
19.5
 30
0.0
 11
34.0
 21
19.5
 31
0.0
  0
LINE
  5
3B
  8
TITLE_BLOCK
 10
32.375
 20
21.375
 30
0.0
 11
34.0
 21
21.375
 31
0.0
  0
LINE
  5
3C
  8
TITLE_BLOCK
 10
32.375
 20
21.0
 30
0.0
 11
34.0
 21
21.0
 31
0.0
  0
VIEWPORT
  5
4A
 67
     1
  8
0
 10
17.2475949928635508
 20
11.4974566955933408
 30
0.0
 40
36.3373219673022589
 41
27.1250431586904206
 68
     1
 69
     1
1001
ACAD
1000
MVIEW
1002
{
1070
    16
1010
0.0
1020
0.0
1030
0.0
1010
0.0
1020
0.0
1030
1.0
1040
0.0
1040
27.1250431586904206
1040
17.2475949928635508
1040
11.4974566955933408
1040
50.0
1040
0.0
1040
0.0
1070
     0
1070
  1000
1070
     1
1070
     3
1070
     0
1070
     0
1070
     0
1070
     0
1040
0.0
1040
0.0
1040
0.0
1040
0.5
1040
0.5
1040
0.5
1040
0.5
1070
     0
1002
{
1002
}
1002
}
  0
ENDSEC
  0
EOF
